<svg width="130" height="49" viewBox="0 0 130 49" fill="none" xmlns="http://www.w3.org/2000/svg">
<rect x="0.153809" y="0.734863" width="129.231" height="48" rx="7.38462" fill="white" fill-opacity="0.1"/>
<path d="M86.6261 23.9235V26.2498H85.168V27.7753H86.6261V32.9588C86.6261 34.7288 87.4268 35.4368 89.4412 35.4368C89.7952 35.4368 90.1324 35.3947 90.4274 35.3441V33.8354C90.1745 33.8607 90.0144 33.8775 89.7362 33.8775C88.8344 33.8775 88.4382 33.4561 88.4382 32.4953V27.7753H90.4274V26.2498H88.4382V23.9235H86.6261Z" fill="white"/>
<path d="M95.559 35.5632C98.2392 35.5632 99.8828 33.768 99.8828 30.7927C99.8828 27.8343 98.2308 26.0306 95.559 26.0306C92.8787 26.0306 91.2267 27.8343 91.2267 30.7927C91.2267 33.768 92.8703 35.5632 95.559 35.5632ZM95.559 33.9534C93.9828 33.9534 93.0978 32.7987 93.0978 30.7927C93.0978 28.8036 93.9828 27.6405 95.559 27.6405C97.1267 27.6405 98.0201 28.8036 98.0201 30.7927C98.0201 32.7903 97.1267 33.9534 95.559 33.9534Z" fill="white"/>
<path d="M101.289 35.3862H103.101V29.9667C103.101 28.6772 104.07 27.809 105.444 27.809C105.765 27.809 106.304 27.868 106.456 27.9186V26.1318C106.262 26.0812 105.916 26.0559 105.647 26.0559C104.45 26.0559 103.43 26.7133 103.169 27.6152H103.034V26.2076H101.289V35.3862Z" fill="white"/>
<path d="M110.955 27.573C112.295 27.573 113.172 28.5086 113.214 29.9499H108.578C108.679 28.517 109.615 27.573 110.955 27.573ZM113.206 32.9083C112.868 33.6247 112.118 34.0208 111.023 34.0208C109.573 34.0208 108.637 33.001 108.578 31.3911V31.29H115.06V30.6579C115.06 27.7753 113.517 26.0306 110.964 26.0306C108.376 26.0306 106.732 27.8933 106.732 30.8264C106.732 33.7595 108.342 35.5632 110.972 35.5632C113.071 35.5632 114.537 34.5518 114.95 32.9083H113.206Z" fill="white"/>
<path d="M74.7425 31.9967C74.8822 34.2506 76.7605 35.692 79.5559 35.692C82.5436 35.692 84.4131 34.1807 84.4131 31.7696C84.4131 29.8739 83.3473 28.8256 80.7615 28.2228L79.3725 27.8821C77.7301 27.4977 77.0662 26.9823 77.0662 26.0825C77.0662 24.9469 78.0971 24.2043 79.6433 24.2043C81.1109 24.2043 82.1243 24.9294 82.3077 26.0913H84.2122C84.0986 23.9684 82.2291 22.4746 79.6695 22.4746C76.9177 22.4746 75.0832 23.9684 75.0832 26.2136C75.0832 28.0656 76.1227 29.1663 78.4028 29.6992L80.0277 30.0923C81.6962 30.4854 82.43 31.062 82.43 32.0229C82.43 33.1411 81.2769 33.9536 79.7045 33.9536C78.0184 33.9536 76.8478 33.1935 76.6818 31.9967H74.7425Z" fill="white"/>
<path d="M55.9707 26.0559C54.7233 26.0559 53.6445 26.6796 53.0882 27.7247H52.9533V26.2076H51.2086V38.4373H53.0208V33.9955H53.164C53.6445 34.9648 54.6812 35.5379 55.9876 35.5379C58.3054 35.5379 59.7804 33.709 59.7804 30.7927C59.7804 27.8765 58.3054 26.0559 55.9707 26.0559ZM55.4566 33.9113C53.9395 33.9113 52.987 32.7144 52.987 30.8011C52.987 28.8794 53.9395 27.6826 55.465 27.6826C56.999 27.6826 57.9177 28.8542 57.9177 30.7927C57.9177 32.7397 56.999 33.9113 55.4566 33.9113Z" fill="white"/>
<path d="M66.1213 26.0559C64.8739 26.0559 63.7951 26.6796 63.2388 27.7247H63.1039V26.2076H61.3592V38.4373H63.1713V33.9955H63.3146C63.7951 34.9648 64.8318 35.5379 66.1382 35.5379C68.456 35.5379 69.931 33.709 69.931 30.7927C69.931 27.8765 68.456 26.0559 66.1213 26.0559ZM65.6072 33.9113C64.09 33.9113 63.1376 32.7144 63.1376 30.8011C63.1376 28.8794 64.09 27.6826 65.6156 27.6826C67.1496 27.6826 68.0683 28.8542 68.0683 30.7927C68.0683 32.7397 67.1496 33.9113 65.6072 33.9113Z" fill="white"/>
<path d="M47.9574 35.3862H50.0365L45.4851 22.7804H43.3798L38.8284 35.3862H40.8376L41.9995 32.0404H46.8042L47.9574 35.3862ZM44.332 25.0692H44.4805L46.3063 30.3981H42.4974L44.332 25.0692Z" fill="white"/>
<path d="M40.0457 13.2722V19.3534H42.2413C44.0534 19.3534 45.1027 18.2366 45.1027 16.2938C45.1027 14.3806 44.045 13.2722 42.2413 13.2722H40.0457ZM40.9896 14.1319H42.1359C43.396 14.1319 44.1419 14.9326 44.1419 16.3065C44.1419 17.7014 43.4086 18.4937 42.1359 18.4937H40.9896V14.1319Z" fill="white"/>
<path d="M48.3165 19.4419C49.6567 19.4419 50.4784 18.5443 50.4784 17.0566C50.4784 15.5774 49.6524 14.6756 48.3165 14.6756C46.9764 14.6756 46.1504 15.5774 46.1504 17.0566C46.1504 18.5443 46.9722 19.4419 48.3165 19.4419ZM48.3165 18.637C47.5285 18.637 47.086 18.0596 47.086 17.0566C47.086 16.0621 47.5285 15.4805 48.3165 15.4805C49.1004 15.4805 49.5471 16.0621 49.5471 17.0566C49.5471 18.0554 49.1004 18.637 48.3165 18.637Z" fill="white"/>
<path d="M57.4766 14.7641H56.5705L55.753 18.2661H55.6813L54.7373 14.7641H53.8692L52.9252 18.2661H52.8578L52.036 14.7641H51.1173L52.3816 19.3534H53.3129L54.2569 15.9736H54.3286L55.2768 19.3534H56.2165L57.4766 14.7641Z" fill="white"/>
<path d="M58.5201 19.3534H59.4261V16.6689C59.4261 15.9525 59.8518 15.5058 60.5218 15.5058C61.1919 15.5058 61.5122 15.8724 61.5122 16.6099V19.3534H62.4182V16.3823C62.4182 15.2909 61.8535 14.6756 60.8295 14.6756C60.1383 14.6756 59.6832 14.9832 59.4598 15.4931H59.3924V14.7641H58.5201V19.3534Z" fill="white"/>
<path d="M63.8452 19.3534H64.7512V12.973H63.8452V19.3534Z" fill="white"/>
<path d="M68.1589 19.4419C69.499 19.4419 70.3208 18.5443 70.3208 17.0566C70.3208 15.5774 69.4948 14.6756 68.1589 14.6756C66.8187 14.6756 65.9927 15.5774 65.9927 17.0566C65.9927 18.5443 66.8145 19.4419 68.1589 19.4419ZM68.1589 18.637C67.3708 18.637 66.9283 18.0596 66.9283 17.0566C66.9283 16.0621 67.3708 15.4805 68.1589 15.4805C68.9427 15.4805 69.3894 16.0621 69.3894 17.0566C69.3894 18.0554 68.9427 18.637 68.1589 18.637Z" fill="white"/>
<path d="M73.0204 18.6665C72.5274 18.6665 72.1691 18.4263 72.1691 18.0133C72.1691 17.6087 72.4557 17.3938 73.0878 17.3516L74.2088 17.28V17.6635C74.2088 18.2324 73.7031 18.6665 73.0204 18.6665ZM72.7886 19.4292C73.3913 19.4292 73.8928 19.168 74.1667 18.7086H74.2383V19.3534H75.1107V16.218C75.1107 15.2487 74.4617 14.6756 73.3112 14.6756C72.2703 14.6756 71.5286 15.1813 71.4359 15.9693H72.3124C72.4136 15.6449 72.7633 15.4594 73.2691 15.4594C73.8885 15.4594 74.2088 15.7334 74.2088 16.218V16.6141L72.9656 16.6858C71.8741 16.7532 71.2589 17.2294 71.2589 18.0554C71.2589 18.894 71.9036 19.4292 72.7886 19.4292Z" fill="white"/>
<path d="M78.1854 19.4292C78.8175 19.4292 79.3527 19.13 79.6267 18.6285H79.6983V19.3534H80.5664V12.973H79.6604V15.4931H79.593C79.3443 14.9874 78.8133 14.6882 78.1854 14.6882C77.0265 14.6882 76.2806 15.6069 76.2806 17.0566C76.2806 18.5105 77.018 19.4292 78.1854 19.4292ZM78.4425 15.5016C79.201 15.5016 79.6772 16.1042 79.6772 17.0608C79.6772 18.0217 79.2052 18.6159 78.4425 18.6159C77.6755 18.6159 77.2161 18.0301 77.2161 17.0566C77.2161 16.0916 77.6797 15.5016 78.4425 15.5016Z" fill="white"/>
<path d="M86.4419 19.4419C87.7821 19.4419 88.6038 18.5443 88.6038 17.0566C88.6038 15.5774 87.7779 14.6756 86.4419 14.6756C85.1018 14.6756 84.2758 15.5774 84.2758 17.0566C84.2758 18.5443 85.0976 19.4419 86.4419 19.4419ZM86.4419 18.637C85.6539 18.637 85.2114 18.0596 85.2114 17.0566C85.2114 16.0621 85.6539 15.4805 86.4419 15.4805C87.2258 15.4805 87.6725 16.0621 87.6725 17.0566C87.6725 18.0554 87.2258 18.637 86.4419 18.637Z" fill="white"/>
<path d="M89.8032 19.3534H90.7093V16.6689C90.7093 15.9525 91.1349 15.5058 91.805 15.5058C92.4751 15.5058 92.7953 15.8724 92.7953 16.6099V19.3534H93.7014V16.3823C93.7014 15.2909 93.1367 14.6756 92.1126 14.6756C91.4215 14.6756 90.9664 14.9832 90.743 15.4931H90.6756V14.7641H89.8032V19.3534Z" fill="white"/>
<path d="M97.8743 13.622V14.7851H97.1453V15.5479H97.8743V18.1397C97.8743 19.0247 98.2747 19.3787 99.2819 19.3787C99.4589 19.3787 99.6275 19.3576 99.775 19.3323V18.578C99.6485 18.5906 99.5685 18.599 99.4294 18.599C98.9785 18.599 98.7804 18.3883 98.7804 17.9079V15.5479H99.775V14.7851H98.7804V13.622H97.8743Z" fill="white"/>
<path d="M100.991 19.3534H101.897V16.6731C101.897 15.9778 102.31 15.51 103.052 15.51C103.693 15.51 104.034 15.8808 104.034 16.6141V19.3534H104.94V16.3908C104.94 15.2993 104.337 14.6798 103.36 14.6798C102.668 14.6798 102.184 14.9874 101.96 15.5016H101.889V12.973H100.991V19.3534Z" fill="white"/>
<path d="M108.209 15.4468C108.879 15.4468 109.317 15.9146 109.338 16.6352H107.02C107.071 15.9188 107.538 15.4468 108.209 15.4468ZM109.334 18.1144C109.165 18.4726 108.79 18.6707 108.242 18.6707C107.517 18.6707 107.05 18.1608 107.02 17.3558V17.3053H110.261V16.9892C110.261 15.5479 109.49 14.6756 108.213 14.6756C106.919 14.6756 106.097 15.6069 106.097 17.0735C106.097 18.54 106.902 19.4419 108.217 19.4419C109.266 19.4419 110 18.9362 110.206 18.1144H109.334Z" fill="white"/>
<path d="M28.9959 25.0403C29.0179 23.3334 29.9346 21.7183 31.3887 20.8243C30.4714 19.5141 28.9348 18.6835 27.3362 18.6334C25.6311 18.4545 23.9781 19.6537 23.1092 19.6537C22.2235 19.6537 20.8858 18.6512 19.4452 18.6809C17.5675 18.7415 15.817 19.8091 14.9035 21.4507C12.9397 24.8506 14.4045 29.8474 16.2856 32.5956C17.2268 33.9414 18.3267 35.4446 19.766 35.3913C21.1744 35.3329 21.7004 34.4932 23.4004 34.4932C25.0847 34.4932 25.5782 35.3913 27.0467 35.3574C28.558 35.3329 29.5101 34.0057 30.4183 32.6472C31.0945 31.6883 31.6149 30.6285 31.9601 29.5071C30.184 28.7559 28.998 26.9686 28.9959 25.0403Z" fill="white"/>
<path d="M26.2222 16.8261C27.0462 15.8369 27.4522 14.5654 27.3539 13.2817C26.095 13.414 24.9321 14.0156 24.097 14.9669C23.2803 15.8963 22.8553 17.1454 22.9357 18.38C24.195 18.393 25.4331 17.8076 26.2222 16.8261Z" fill="white"/>
</svg>
