<svg width="133" height="45" viewBox="0 0 133 45" fill="none" xmlns="http://www.w3.org/2000/svg">
<rect x="0.153809" y="0.734863" width="132.846" height="44" rx="6.76923" fill="white" fill-opacity="0.1"/>
<path d="M66.9573 24.3648C64.7681 24.3648 62.9838 26.0299 62.9838 28.3234C62.9838 30.6028 64.7681 32.2819 66.9573 32.2819C69.1474 32.2819 70.9317 30.6028 70.9317 28.3234C70.9307 26.0299 69.1464 24.3648 66.9573 24.3648ZM66.9573 30.7238C65.7575 30.7238 64.7234 29.7344 64.7234 28.3243C64.7234 26.8993 65.7584 25.9248 66.9573 25.9248C68.157 25.9248 69.1911 26.8993 69.1911 28.3243C69.1911 29.7335 68.157 30.7238 66.9573 30.7238ZM58.2881 24.3648C56.0989 24.3648 54.3146 26.0299 54.3146 28.3234C54.3146 30.6028 56.0989 32.2819 58.2881 32.2819C60.4782 32.2819 62.2625 30.6028 62.2625 28.3234C62.2625 26.0299 60.4782 24.3648 58.2881 24.3648ZM58.2881 30.7238C57.0883 30.7238 56.0542 29.7344 56.0542 28.3243C56.0542 26.8993 57.0893 25.9248 58.2881 25.9248C59.4879 25.9248 60.5219 26.8993 60.5219 28.3243C60.5229 29.7335 59.4879 30.7238 58.2881 30.7238ZM47.977 25.5804V27.2595H51.9961C51.876 28.2042 51.5614 28.8939 51.0811 29.3733C50.4966 29.9578 49.5817 30.6028 47.977 30.6028C45.503 30.6028 43.5689 28.6082 43.5689 26.1342C43.5689 23.6602 45.503 21.6656 47.977 21.6656C49.3118 21.6656 50.2863 22.1905 51.0058 22.8653L52.1906 21.6805C51.1854 20.7208 49.8516 19.9865 47.977 19.9865C44.5881 19.9865 41.739 22.7453 41.739 26.1342C41.739 29.5231 44.5881 32.2819 47.977 32.2819C49.806 32.2819 51.1863 31.6816 52.2651 30.5572C53.3746 29.4477 53.7199 27.8877 53.7199 26.6284C53.7199 26.2394 53.6901 25.8792 53.6296 25.5794H47.977V25.5804ZM90.1483 26.8844C89.8188 26.0002 88.8136 24.3648 86.7594 24.3648C84.7201 24.3648 83.0251 25.9694 83.0251 28.3234C83.0251 30.5423 84.7052 32.2819 86.9539 32.2819C88.768 32.2819 89.8179 31.1724 90.2535 30.5274L88.9039 29.6274C88.4543 30.2873 87.8391 30.7219 86.9539 30.7219C86.0697 30.7219 85.4396 30.3171 85.0347 29.5222L90.328 27.333L90.1483 26.8844ZM84.7499 28.2042C84.7052 26.674 85.9347 25.895 86.8199 25.895C87.5096 25.895 88.0941 26.2403 88.2896 26.7345L84.7499 28.2042ZM80.4469 32.0427H82.1856V20.4072H80.4469V32.0427ZM77.5969 25.25H77.5373C77.1473 24.7846 76.3971 24.3648 75.4533 24.3648C73.4736 24.3648 71.6595 26.1044 71.6595 28.3392C71.6595 30.5581 73.4736 32.2828 75.4533 32.2828C76.3981 32.2828 77.1473 31.8631 77.5373 31.3837H77.5969V31.9534C77.5969 33.4677 76.7871 34.2775 75.4831 34.2775C74.4183 34.2775 73.7584 33.5133 73.4885 32.8683L71.9741 33.4984C72.4088 34.5474 73.5629 35.8375 75.4831 35.8375C77.5224 35.8375 79.2471 34.6377 79.2471 31.7132V24.6059H77.5978V25.25H77.5969ZM75.6032 30.7238C74.4034 30.7238 73.3991 29.7186 73.3991 28.3392C73.3991 26.944 74.4034 25.9248 75.6032 25.9248C76.7871 25.9248 77.717 26.944 77.717 28.3392C77.717 29.7186 76.7871 30.7238 75.6032 30.7238ZM98.2963 20.4072H94.1348V32.0427H95.8707V27.6346H98.2953C100.22 27.6346 102.113 26.2412 102.113 24.0213C102.113 21.8015 100.221 20.4072 98.2963 20.4072ZM98.3409 26.015H95.8707V22.0267H98.3409C99.6394 22.0267 100.377 23.1017 100.377 24.0213C100.377 24.9223 99.6394 26.015 98.3409 26.015ZM109.075 24.3443C107.817 24.3443 106.515 24.8981 105.976 26.1258L107.517 26.769C107.847 26.1258 108.461 25.9155 109.104 25.9155C110.003 25.9155 110.916 26.4544 110.931 27.4121V27.5322C110.616 27.3526 109.942 27.0836 109.119 27.0836C107.458 27.0836 105.766 27.9967 105.766 29.7028C105.766 31.2599 107.128 32.2624 108.655 32.2624C109.822 32.2624 110.466 31.7383 110.87 31.124H110.93V32.0222H112.607V27.5611C112.608 25.4966 111.065 24.3443 109.075 24.3443ZM108.864 30.721C108.296 30.721 107.503 30.4362 107.503 29.7325C107.503 28.8343 108.491 28.49 109.345 28.49C110.107 28.49 110.467 28.6547 110.931 28.879C110.796 29.9578 109.868 30.721 108.864 30.721ZM118.715 24.5984L116.724 29.6432H116.664L114.598 24.5984H112.727L115.825 31.649L114.059 35.5713H115.87L120.646 24.5984H118.715ZM103.072 32.0427H104.808V20.4072H103.072V32.0427Z" fill="white"/>
<path d="M47.6736 13.6534C47.6736 14.4334 47.4428 15.0542 46.9802 15.5177C46.4553 16.0687 45.7702 16.3442 44.9288 16.3442C44.1227 16.3442 43.4368 16.065 42.8737 15.5065C42.3096 14.9471 42.0276 14.2546 42.0276 13.4281C42.0276 12.6007 42.3096 11.9082 42.8737 11.3497C43.4368 10.7903 44.1227 10.5111 44.9288 10.5111C45.329 10.5111 45.7116 10.5893 46.0746 10.7447C46.4385 10.9011 46.7298 11.1086 46.9476 11.3683L46.4571 11.8598C46.0876 11.4177 45.5785 11.1971 44.9279 11.1971C44.3396 11.1971 43.8314 11.4037 43.4023 11.817C42.9732 12.2302 42.7592 12.7673 42.7592 13.4272C42.7592 14.0871 42.9732 14.6242 43.4023 15.0374C43.8314 15.4507 44.3396 15.6573 44.9279 15.6573C45.5515 15.6573 46.0718 15.4498 46.4878 15.0337C46.7578 14.7628 46.9141 14.3859 46.956 13.9028H44.9279V13.2317H47.6336C47.6615 13.3779 47.6736 13.5184 47.6736 13.6534Z" fill="white"/>
<path d="M51.9646 11.3209H49.4217V13.0912H51.7151V13.7623H49.4217V15.5326H51.9646V16.2196H48.7041V10.6349H51.9646V11.3209Z" fill="white"/>
<path d="M54.9904 16.2196H54.2728V11.3209H52.7128V10.6349H56.5504V11.3209H54.9904V16.2196Z" fill="white"/>
<path d="M59.3268 16.2196V10.6349H60.0444V16.2196H59.3268Z" fill="white"/>
<path d="M63.2269 16.2196H62.5093V11.3209H60.9493V10.6349H64.7868V11.3209H63.2269V16.2196Z" fill="white"/>
<path d="M72.0513 15.4982C71.5021 16.0622 70.8199 16.3443 70.0036 16.3443C69.1873 16.3443 68.5051 16.0622 67.9568 15.4982C67.4077 14.9342 67.134 14.2435 67.134 13.4272C67.134 12.611 67.4077 11.9203 67.9568 11.3563C68.5051 10.7922 69.1873 10.5093 70.0036 10.5093C70.8152 10.5093 71.4966 10.7932 72.0476 11.36C72.5986 11.9268 72.8741 12.6156 72.8741 13.4272C72.8741 14.2435 72.5995 14.9342 72.0513 15.4982ZM68.4864 15.03C68.8997 15.4489 69.4051 15.6574 70.0036 15.6574C70.6021 15.6574 71.1084 15.4479 71.5208 15.03C71.934 14.6112 72.1416 14.0769 72.1416 13.4272C72.1416 12.7776 71.934 12.2433 71.5208 11.8245C71.1084 11.4056 70.6021 11.1971 70.0036 11.1971C69.4051 11.1971 68.8997 11.4065 68.4864 11.8245C68.0741 12.2433 67.8666 12.7776 67.8666 13.4272C67.8666 14.0769 68.0741 14.6112 68.4864 15.03Z" fill="white"/>
<path d="M73.8812 16.2196V10.6349H74.7543L77.4684 14.9788H77.4991L77.4684 13.9029V10.6349H78.186V16.2196H77.4367L74.597 11.6644H74.5662L74.597 12.7403V16.2196H73.8812Z" fill="white"/>
<path d="M47.6736 13.6534C47.6736 14.4334 47.4428 15.0542 46.9802 15.5177C46.4553 16.0687 45.7702 16.3442 44.9288 16.3442C44.1227 16.3442 43.4368 16.065 42.8737 15.5065C42.3096 14.9471 42.0276 14.2546 42.0276 13.4281C42.0276 12.6007 42.3096 11.9082 42.8737 11.3497C43.4368 10.7903 44.1227 10.5111 44.9288 10.5111C45.329 10.5111 45.7116 10.5893 46.0746 10.7447C46.4385 10.9011 46.7298 11.1086 46.9476 11.3683L46.4571 11.8598C46.0876 11.4177 45.5785 11.1971 44.9279 11.1971C44.3396 11.1971 43.8314 11.4037 43.4023 11.817C42.9732 12.2302 42.7592 12.7673 42.7592 13.4272C42.7592 14.0871 42.9732 14.6242 43.4023 15.0374C43.8314 15.4507 44.3396 15.6573 44.9279 15.6573C45.5515 15.6573 46.0718 15.4498 46.4878 15.0337C46.7578 14.7628 46.9141 14.3859 46.956 13.9028H44.9279V13.2317H47.6336C47.6615 13.3779 47.6736 13.5184 47.6736 13.6534Z" stroke="white" stroke-width="0.169231" stroke-miterlimit="10"/>
<path d="M51.9646 11.3209H49.4217V13.0912H51.7151V13.7623H49.4217V15.5326H51.9646V16.2196H48.7041V10.6349H51.9646V11.3209Z" stroke="white" stroke-width="0.169231" stroke-miterlimit="10"/>
<path d="M54.9904 16.2196H54.2728V11.3209H52.7128V10.6349H56.5504V11.3209H54.9904V16.2196Z" stroke="white" stroke-width="0.169231" stroke-miterlimit="10"/>
<path d="M59.3268 16.2196V10.6349H60.0444V16.2196H59.3268Z" stroke="white" stroke-width="0.169231" stroke-miterlimit="10"/>
<path d="M63.2269 16.2196H62.5093V11.3209H60.9493V10.6349H64.7868V11.3209H63.2269V16.2196Z" stroke="white" stroke-width="0.169231" stroke-miterlimit="10"/>
<path d="M72.0513 15.4982C71.5021 16.0622 70.8199 16.3443 70.0036 16.3443C69.1873 16.3443 68.5051 16.0622 67.9568 15.4982C67.4077 14.9342 67.134 14.2435 67.134 13.4272C67.134 12.611 67.4077 11.9203 67.9568 11.3563C68.5051 10.7922 69.1873 10.5093 70.0036 10.5093C70.8152 10.5093 71.4966 10.7932 72.0476 11.36C72.5986 11.9268 72.8741 12.6156 72.8741 13.4272C72.8741 14.2435 72.5995 14.9342 72.0513 15.4982ZM68.4864 15.03C68.8997 15.4489 69.4051 15.6574 70.0036 15.6574C70.6021 15.6574 71.1084 15.4479 71.5208 15.03C71.934 14.6112 72.1416 14.0769 72.1416 13.4272C72.1416 12.7776 71.934 12.2433 71.5208 11.8245C71.1084 11.4056 70.6021 11.1971 70.0036 11.1971C69.4051 11.1971 68.8997 11.4065 68.4864 11.8245C68.0741 12.2433 67.8666 12.7776 67.8666 13.4272C67.8666 14.0769 68.0741 14.6112 68.4864 15.03Z" stroke="white" stroke-width="0.169231" stroke-miterlimit="10"/>
<path d="M73.8812 16.2196V10.6349H74.7543L77.4684 14.9788H77.4991L77.4684 13.9029V10.6349H78.186V16.2196H77.4367L74.597 11.6644H74.5662L74.597 12.7403V16.2196H73.8812Z" stroke="white" stroke-width="0.169231" stroke-miterlimit="10"/>
<g filter="url(#filter0_ii_395_962)">
<path d="M13.2517 11.1356C12.9809 11.4223 12.8208 11.8672 12.8208 12.4433V33.0282C12.8208 33.6053 12.9809 34.0492 13.2517 34.3359L13.3206 34.4029L24.8519 22.8716V22.7357V22.5999L13.3206 11.0676L13.2517 11.1356Z" fill="url(#paint0_linear_395_962)"/>
<path d="M28.6952 26.7167L24.852 22.8717V22.7358V22.5999L28.6961 18.7559L28.7827 18.8052L33.3369 21.3927C34.6372 22.1318 34.6372 23.3408 33.3369 24.0808L28.7827 26.6683L28.6952 26.7167Z" fill="url(#paint1_linear_395_962)"/>
<g filter="url(#filter1_i_395_962)">
<path d="M28.7825 26.6674L24.851 22.7358L13.2517 34.336C13.6799 34.7902 14.3882 34.8461 15.1858 34.3937L28.7825 26.6674Z" fill="url(#paint2_linear_395_962)"/>
</g>
<path d="M28.7825 18.8042L15.1858 11.0788C14.3882 10.6255 13.6799 10.6823 13.2517 11.1365L24.8519 22.7367L28.7825 18.8042Z" fill="url(#paint3_linear_395_962)"/>
</g>
<defs>
<filter id="filter0_ii_395_962" x="12.8208" y="10.766" width="21.4915" height="23.9402" filterUnits="userSpaceOnUse" color-interpolation-filters="sRGB">
<feFlood flood-opacity="0" result="BackgroundImageFix"/>
<feBlend mode="normal" in="SourceGraphic" in2="BackgroundImageFix" result="shape"/>
<feColorMatrix in="SourceAlpha" type="matrix" values="0 0 0 0 0 0 0 0 0 0 0 0 0 0 0 0 0 0 127 0" result="hardAlpha"/>
<feOffset dy="-0.126923"/>
<feComposite in2="hardAlpha" operator="arithmetic" k2="-1" k3="1"/>
<feColorMatrix type="matrix" values="0 0 0 0 0 0 0 0 0 0 0 0 0 0 0 0 0 0 0.12 0"/>
<feBlend mode="normal" in2="shape" result="effect1_innerShadow_395_962"/>
<feColorMatrix in="SourceAlpha" type="matrix" values="0 0 0 0 0 0 0 0 0 0 0 0 0 0 0 0 0 0 127 0" result="hardAlpha"/>
<feOffset dy="0.126923"/>
<feComposite in2="hardAlpha" operator="arithmetic" k2="-1" k3="1"/>
<feColorMatrix type="matrix" values="0 0 0 0 1 0 0 0 0 1 0 0 0 0 1 0 0 0 0.25 0"/>
<feBlend mode="normal" in2="effect1_innerShadow_395_962" result="effect2_innerShadow_395_962"/>
</filter>
<filter id="filter1_i_395_962" x="13.2517" y="22.7358" width="15.5308" height="11.9703" filterUnits="userSpaceOnUse" color-interpolation-filters="sRGB">
<feFlood flood-opacity="0" result="BackgroundImageFix"/>
<feBlend mode="normal" in="SourceGraphic" in2="BackgroundImageFix" result="shape"/>
<feColorMatrix in="SourceAlpha" type="matrix" values="0 0 0 0 0 0 0 0 0 0 0 0 0 0 0 0 0 0 127 0" result="hardAlpha"/>
<feOffset dy="-0.126923"/>
<feComposite in2="hardAlpha" operator="arithmetic" k2="-1" k3="1"/>
<feColorMatrix type="matrix" values="0 0 0 0 0 0 0 0 0 0 0 0 0 0 0 0 0 0 0.08 0"/>
<feBlend mode="normal" in2="shape" result="effect1_innerShadow_395_962"/>
</filter>
<linearGradient id="paint0_linear_395_962" x1="23.8298" y1="12.2255" x2="8.20959" y2="27.8457" gradientUnits="userSpaceOnUse">
<stop stop-color="#00A0FF"/>
<stop offset="0.0066" stop-color="#00A1FF"/>
<stop offset="0.2601" stop-color="#00BEFF"/>
<stop offset="0.5122" stop-color="#00D2FF"/>
<stop offset="0.7604" stop-color="#00DFFF"/>
<stop offset="1" stop-color="#00E3FF"/>
</linearGradient>
<linearGradient id="paint1_linear_395_962" x1="35.0295" y1="22.7358" x2="12.5087" y2="22.7358" gradientUnits="userSpaceOnUse">
<stop stop-color="#FFE000"/>
<stop offset="0.4087" stop-color="#FFBD00"/>
<stop offset="0.7754" stop-color="#FFA500"/>
<stop offset="1" stop-color="#FF9C00"/>
</linearGradient>
<linearGradient id="paint2_linear_395_962" x1="26.6474" y1="24.8709" x2="5.46453" y2="46.0538" gradientUnits="userSpaceOnUse">
<stop stop-color="#FF3A44"/>
<stop offset="1" stop-color="#C31162"/>
</linearGradient>
<linearGradient id="paint3_linear_395_962" x1="10.3304" y1="4.284" x2="19.7892" y2="13.7428" gradientUnits="userSpaceOnUse">
<stop stop-color="#32A071"/>
<stop offset="0.0685" stop-color="#2DA771"/>
<stop offset="0.4762" stop-color="#15CF74"/>
<stop offset="0.8009" stop-color="#06E775"/>
<stop offset="1" stop-color="#00F076"/>
</linearGradient>
</defs>
</svg>
