<svg width="123" height="42" viewBox="0 0 123 42" fill="none" xmlns="http://www.w3.org/2000/svg">
<path d="M83.6261 19.9235V22.2498H82.168V23.7753H83.6261V28.9588C83.6261 30.7288 84.4268 31.4368 86.4412 31.4368C86.7952 31.4368 87.1324 31.3947 87.4274 31.3441V29.8354C87.1745 29.8607 87.0144 29.8775 86.7362 29.8775C85.8344 29.8775 85.4382 29.4561 85.4382 28.4953V23.7753H87.4274V22.2498H85.4382V19.9235H83.6261Z" fill="white"/>
<path d="M92.559 31.5632C95.2392 31.5632 96.8828 29.768 96.8828 26.7927C96.8828 23.8343 95.2308 22.0306 92.559 22.0306C89.8787 22.0306 88.2267 23.8343 88.2267 26.7927C88.2267 29.768 89.8703 31.5632 92.559 31.5632ZM92.559 29.9534C90.9828 29.9534 90.0978 28.7987 90.0978 26.7927C90.0978 24.8036 90.9828 23.6405 92.559 23.6405C94.1267 23.6405 95.0201 24.8036 95.0201 26.7927C95.0201 28.7903 94.1267 29.9534 92.559 29.9534Z" fill="white"/>
<path d="M98.289 31.3862H100.101V25.9667C100.101 24.6772 101.07 23.809 102.444 23.809C102.765 23.809 103.304 23.868 103.456 23.9186V22.1318C103.262 22.0812 102.916 22.0559 102.647 22.0559C101.45 22.0559 100.43 22.7133 100.169 23.6152H100.034V22.2076H98.289V31.3862Z" fill="white"/>
<path d="M107.955 23.573C109.295 23.573 110.172 24.5086 110.214 25.9499H105.578C105.679 24.517 106.615 23.573 107.955 23.573ZM110.206 28.9083C109.868 29.6247 109.118 30.0208 108.023 30.0208C106.573 30.0208 105.637 29.001 105.578 27.3911V27.29H112.06V26.6579C112.06 23.7753 110.517 22.0306 107.964 22.0306C105.376 22.0306 103.732 23.8933 103.732 26.8264C103.732 29.7595 105.342 31.5632 107.972 31.5632C110.071 31.5632 111.537 30.5518 111.95 28.9083H110.206Z" fill="white"/>
<path d="M71.7425 27.9967C71.8822 30.2506 73.7605 31.692 76.5559 31.692C79.5436 31.692 81.4131 30.1807 81.4131 27.7696C81.4131 25.8739 80.3473 24.8256 77.7615 24.2228L76.3725 23.8821C74.7301 23.4977 74.0662 22.9823 74.0662 22.0825C74.0662 20.9469 75.0971 20.2043 76.6433 20.2043C78.1109 20.2043 79.1243 20.9294 79.3077 22.0913H81.2122C81.0986 19.9684 79.2291 18.4746 76.6695 18.4746C73.9177 18.4746 72.0832 19.9684 72.0832 22.2136C72.0832 24.0656 73.1227 25.1663 75.4028 25.6992L77.0277 26.0923C78.6962 26.4854 79.43 27.062 79.43 28.0229C79.43 29.1411 78.2769 29.9536 76.7045 29.9536C75.0184 29.9536 73.8478 29.1935 73.6818 27.9967H71.7425Z" fill="white"/>
<path d="M52.9707 22.0559C51.7233 22.0559 50.6445 22.6796 50.0882 23.7247H49.9533V22.2076H48.2086V34.4373H50.0208V29.9955H50.164C50.6445 30.9648 51.6812 31.5379 52.9876 31.5379C55.3054 31.5379 56.7804 29.709 56.7804 26.7927C56.7804 23.8765 55.3054 22.0559 52.9707 22.0559ZM52.4566 29.9113C50.9395 29.9113 49.987 28.7144 49.987 26.8011C49.987 24.8794 50.9395 23.6826 52.465 23.6826C53.999 23.6826 54.9177 24.8542 54.9177 26.7927C54.9177 28.7397 53.999 29.9113 52.4566 29.9113Z" fill="white"/>
<path d="M63.1213 22.0559C61.8739 22.0559 60.7951 22.6796 60.2388 23.7247H60.1039V22.2076H58.3592V34.4373H60.1713V29.9955H60.3146C60.7951 30.9648 61.8318 31.5379 63.1382 31.5379C65.456 31.5379 66.931 29.709 66.931 26.7927C66.931 23.8765 65.456 22.0559 63.1213 22.0559ZM62.6072 29.9113C61.09 29.9113 60.1376 28.7144 60.1376 26.8011C60.1376 24.8794 61.09 23.6826 62.6156 23.6826C64.1496 23.6826 65.0683 24.8542 65.0683 26.7927C65.0683 28.7397 64.1496 29.9113 62.6072 29.9113Z" fill="white"/>
<path d="M44.9574 31.3862H47.0365L42.4851 18.7804H40.3798L35.8284 31.3862H37.8376L38.9995 28.0404H43.8042L44.9574 31.3862ZM41.332 21.0692H41.4805L43.3063 26.3981H39.4974L41.332 21.0692Z" fill="white"/>
<path d="M37.0457 9.27223V15.3534H39.2413C41.0534 15.3534 42.1027 14.2366 42.1027 12.2938C42.1027 10.3806 41.045 9.27223 39.2413 9.27223H37.0457ZM37.9896 10.1319H39.1359C40.396 10.1319 41.1419 10.9326 41.1419 12.3065C41.1419 13.7014 40.4086 14.4937 39.1359 14.4937H37.9896V10.1319Z" fill="white"/>
<path d="M45.3165 15.4419C46.6567 15.4419 47.4784 14.5443 47.4784 13.0566C47.4784 11.5774 46.6524 10.6756 45.3165 10.6756C43.9764 10.6756 43.1504 11.5774 43.1504 13.0566C43.1504 14.5443 43.9722 15.4419 45.3165 15.4419ZM45.3165 14.637C44.5285 14.637 44.086 14.0596 44.086 13.0566C44.086 12.0621 44.5285 11.4805 45.3165 11.4805C46.1004 11.4805 46.5471 12.0621 46.5471 13.0566C46.5471 14.0554 46.1004 14.637 45.3165 14.637Z" fill="white"/>
<path d="M54.4766 10.7641H53.5705L52.753 14.2661H52.6813L51.7373 10.7641H50.8692L49.9252 14.2661H49.8578L49.036 10.7641H48.1173L49.3816 15.3534H50.3129L51.2569 11.9736H51.3286L52.2768 15.3534H53.2165L54.4766 10.7641Z" fill="white"/>
<path d="M55.5201 15.3534H56.4261V12.6689C56.4261 11.9525 56.8518 11.5058 57.5218 11.5058C58.1919 11.5058 58.5122 11.8724 58.5122 12.6099V15.3534H59.4182V12.3823C59.4182 11.2909 58.8535 10.6756 57.8295 10.6756C57.1383 10.6756 56.6832 10.9832 56.4598 11.4931H56.3924V10.7641H55.5201V15.3534Z" fill="white"/>
<path d="M60.8452 15.3534H61.7512V8.97302H60.8452V15.3534Z" fill="white"/>
<path d="M65.1589 15.4419C66.499 15.4419 67.3208 14.5443 67.3208 13.0566C67.3208 11.5774 66.4948 10.6756 65.1589 10.6756C63.8187 10.6756 62.9927 11.5774 62.9927 13.0566C62.9927 14.5443 63.8145 15.4419 65.1589 15.4419ZM65.1589 14.637C64.3708 14.637 63.9283 14.0596 63.9283 13.0566C63.9283 12.0621 64.3708 11.4805 65.1589 11.4805C65.9427 11.4805 66.3894 12.0621 66.3894 13.0566C66.3894 14.0554 65.9427 14.637 65.1589 14.637Z" fill="white"/>
<path d="M70.0204 14.6665C69.5274 14.6665 69.1691 14.4263 69.1691 14.0133C69.1691 13.6087 69.4557 13.3938 70.0878 13.3516L71.2088 13.28V13.6635C71.2088 14.2324 70.7031 14.6665 70.0204 14.6665ZM69.7886 15.4292C70.3913 15.4292 70.8928 15.168 71.1667 14.7086H71.2383V15.3534H72.1107V12.218C72.1107 11.2487 71.4617 10.6756 70.3112 10.6756C69.2703 10.6756 68.5286 11.1813 68.4359 11.9693H69.3124C69.4136 11.6449 69.7633 11.4594 70.2691 11.4594C70.8885 11.4594 71.2088 11.7334 71.2088 12.218V12.6141L69.9656 12.6858C68.8741 12.7532 68.2589 13.2294 68.2589 14.0554C68.2589 14.894 68.9036 15.4292 69.7886 15.4292Z" fill="white"/>
<path d="M75.1854 15.4292C75.8175 15.4292 76.3527 15.13 76.6267 14.6285H76.6983V15.3534H77.5664V8.97302H76.6604V11.4931H76.593C76.3443 10.9874 75.8133 10.6882 75.1854 10.6882C74.0265 10.6882 73.2806 11.6069 73.2806 13.0566C73.2806 14.5105 74.018 15.4292 75.1854 15.4292ZM75.4425 11.5016C76.201 11.5016 76.6772 12.1042 76.6772 13.0608C76.6772 14.0217 76.2052 14.6159 75.4425 14.6159C74.6755 14.6159 74.2161 14.0301 74.2161 13.0566C74.2161 12.0916 74.6797 11.5016 75.4425 11.5016Z" fill="white"/>
<path d="M83.4419 15.4419C84.7821 15.4419 85.6038 14.5443 85.6038 13.0566C85.6038 11.5774 84.7779 10.6756 83.4419 10.6756C82.1018 10.6756 81.2758 11.5774 81.2758 13.0566C81.2758 14.5443 82.0976 15.4419 83.4419 15.4419ZM83.4419 14.637C82.6539 14.637 82.2114 14.0596 82.2114 13.0566C82.2114 12.0621 82.6539 11.4805 83.4419 11.4805C84.2258 11.4805 84.6725 12.0621 84.6725 13.0566C84.6725 14.0554 84.2258 14.637 83.4419 14.637Z" fill="white"/>
<path d="M86.8032 15.3534H87.7093V12.6689C87.7093 11.9525 88.1349 11.5058 88.805 11.5058C89.4751 11.5058 89.7953 11.8724 89.7953 12.6099V15.3534H90.7014V12.3823C90.7014 11.2909 90.1367 10.6756 89.1126 10.6756C88.4215 10.6756 87.9664 10.9832 87.743 11.4931H87.6756V10.7641H86.8032V15.3534Z" fill="white"/>
<path d="M94.8743 9.62202V10.7851H94.1453V11.5479H94.8743V14.1397C94.8743 15.0247 95.2747 15.3787 96.2819 15.3787C96.4589 15.3787 96.6275 15.3576 96.775 15.3323V14.578C96.6485 14.5906 96.5685 14.599 96.4294 14.599C95.9785 14.599 95.7804 14.3883 95.7804 13.9079V11.5479H96.775V10.7851H95.7804V9.62202H94.8743Z" fill="white"/>
<path d="M97.9912 15.3534H98.8973V12.6731C98.8973 11.9778 99.3102 11.51 100.052 11.51C100.693 11.51 101.034 11.8808 101.034 12.6141V15.3534H101.94V12.3908C101.94 11.2993 101.337 10.6798 100.36 10.6798C99.6685 10.6798 99.1838 10.9874 98.9605 11.5016H98.8888V8.97302H97.9912V15.3534Z" fill="white"/>
<path d="M105.209 11.4468C105.879 11.4468 106.317 11.9146 106.338 12.6352H104.02C104.071 11.9188 104.538 11.4468 105.209 11.4468ZM106.334 14.1144C106.165 14.4726 105.79 14.6707 105.242 14.6707C104.517 14.6707 104.05 14.1608 104.02 13.3558V13.3053H107.261V12.9892C107.261 11.5479 106.49 10.6756 105.213 10.6756C103.919 10.6756 103.097 11.6069 103.097 13.0735C103.097 14.54 103.902 15.4419 105.217 15.4419C106.266 15.4419 107 14.9362 107.206 14.1144H106.334Z" fill="white"/>
<path d="M25.9959 21.0403C26.0179 19.3334 26.9346 17.7183 28.3887 16.8243C27.4714 15.5141 25.9348 14.6835 24.3362 14.6334C22.6311 14.4545 20.9781 15.6537 20.1092 15.6537C19.2235 15.6537 17.8858 14.6512 16.4452 14.6809C14.5675 14.7415 12.817 15.8091 11.9035 17.4507C9.93972 20.8506 11.4045 25.8474 13.2856 28.5956C14.2268 29.9414 15.3267 31.4446 16.766 31.3913C18.1744 31.3329 18.7004 30.4932 20.4004 30.4932C22.0847 30.4932 22.5782 31.3913 24.0467 31.3574C25.558 31.3329 26.5101 30.0057 27.4183 28.6472C28.0945 27.6883 28.6149 26.6285 28.9601 25.5071C27.184 24.7559 25.998 22.9686 25.9959 21.0403Z" fill="white"/>
<path d="M23.2222 12.8261C24.0462 11.8369 24.4522 10.5654 24.3539 9.28174C23.095 9.41396 21.9321 10.0156 21.097 10.9669C20.2803 11.8963 19.8553 13.1454 19.9357 14.38C21.195 14.393 22.4331 13.8076 23.2222 12.8261Z" fill="white"/>
</svg>
