<svg width="20" height="21" viewBox="0 0 20 21" fill="none" xmlns="http://www.w3.org/2000/svg">
<path d="M12.9167 10.8637C12.9167 12.4745 11.6109 13.7804 10 13.7804C8.38921 13.7804 7.08337 12.4745 7.08337 10.8637C7.08337 9.25285 8.38921 7.94702 10 7.94702C11.6109 7.94702 12.9167 9.25285 12.9167 10.8637Z" stroke="#99E39E" stroke-width="1.25"/>
<path d="M17.5091 12.6109C17.944 12.4936 18.1615 12.435 18.2474 12.3228C18.3333 12.2107 18.3333 12.0303 18.3333 11.6695V10.0581C18.3333 9.69737 18.3333 9.51695 18.2474 9.40487C18.1615 9.2927 17.944 9.23403 17.5091 9.11677C15.8838 8.67844 14.8665 6.97921 15.286 5.36451C15.4014 4.92044 15.459 4.69842 15.404 4.56819C15.3489 4.43797 15.1909 4.34823 14.8747 4.16875L13.4375 3.35273C13.1273 3.17661 12.9722 3.08855 12.833 3.1073C12.6938 3.12605 12.5368 3.28273 12.2226 3.59606C11.0066 4.80918 8.99463 4.80913 7.77858 3.59598C7.46448 3.28264 7.30744 3.12598 7.16823 3.10722C7.02903 3.08847 6.87393 3.17653 6.56373 3.35264L5.12649 4.16868C4.8104 4.34814 4.65235 4.43788 4.59728 4.56808C4.54219 4.69828 4.59985 4.92034 4.71517 5.36445C5.13443 6.9792 4.11639 8.67848 2.49081 9.11678C2.05589 9.23403 1.83843 9.2927 1.75253 9.40478C1.66663 9.51695 1.66663 9.69737 1.66663 10.0581V11.6695C1.66663 12.0303 1.66663 12.2107 1.75253 12.3228C1.83842 12.435 2.05588 12.4936 2.49081 12.6109C4.11613 13.0492 5.13336 14.7485 4.71389 16.3631C4.59853 16.8072 4.54085 17.0292 4.59593 17.1595C4.65101 17.2897 4.80906 17.3795 5.12517 17.5589L6.56242 18.375C6.87263 18.551 7.02774 18.6391 7.16696 18.6204C7.30618 18.6016 7.46319 18.4449 7.77722 18.1315C8.99388 16.9175 11.0073 16.9174 12.224 18.1315C12.538 18.4449 12.695 18.6015 12.8343 18.6203C12.9735 18.639 13.1286 18.551 13.4388 18.3749L14.876 17.5588C15.1922 17.3794 15.3503 17.2896 15.4053 17.1594C15.4604 17.0291 15.4027 16.8071 15.2873 16.363C14.8676 14.7485 15.884 13.0493 17.5091 12.6109Z" stroke="#99E39E" stroke-width="1.25" stroke-linecap="round"/>
</svg>
