<svg width="20" height="21" viewBox="0 0 20 21" fill="none" xmlns="http://www.w3.org/2000/svg">
<path d="M7.19016 11.4251H6.80769C5.57125 11.4251 4.95302 11.4251 4.68951 11.0174C4.42599 10.6099 4.67707 10.0419 5.17924 8.90613L6.68894 5.49146C7.14551 4.45877 7.37381 3.94242 7.81668 3.65309C8.25956 3.36377 8.82162 3.36377 9.94587 3.36377H11.687C13.0527 3.36377 13.7355 3.36377 13.993 3.80989C14.2506 4.25602 13.9119 4.852 13.2343 6.04396L12.341 7.61534C12.0042 8.20789 11.8358 8.50418 11.8381 8.7467C11.8412 9.06189 12.0088 9.35227 12.2795 9.51127C12.4879 9.63369 12.8273 9.63369 13.5062 9.63369C14.3645 9.63369 14.7936 9.63369 15.0171 9.78227C15.3075 9.97527 15.4595 10.3206 15.4062 10.6664C15.3652 10.9326 15.0765 11.2518 14.4992 11.8902L9.88662 16.9907C8.98062 17.9925 8.52762 18.4934 8.22343 18.3349C7.91923 18.1764 8.06531 17.5156 8.35746 16.1939L8.92979 13.6051C9.15221 12.5988 9.26346 12.0956 8.99596 11.7604C8.72846 11.4251 8.21568 11.4251 7.19016 11.4251Z" stroke="#99E39E" stroke-width="1.25" stroke-linejoin="round"/>
</svg>
