<svg width="24" height="25" viewBox="0 0 24 25" fill="none" xmlns="http://www.w3.org/2000/svg">
<path d="M20.5 16.5627C17.9985 22.4909 9.86407 24.2184 5.20143 19.599C0.629483 15.0696 2.04493 6.86369 8.05653 4.23486" stroke="#99E39E" stroke-width="1.5" stroke-linecap="round"/>
<path d="M17.6831 13.2349C19.5708 13.2349 20.5146 13.2349 21.1241 12.3899C21.1469 12.3583 21.1848 12.3016 21.2052 12.2685C21.7527 11.382 21.4705 10.7009 20.9063 9.33864C20.3946 8.10339 19.6447 6.98101 18.6993 6.03559C17.7538 5.09017 16.6315 4.34022 15.3962 3.82856C14.034 3.26432 13.3529 2.98219 12.4664 3.52963C12.4333 3.55009 12.3766 3.58795 12.345 3.61073C11.5 4.22026 11.5 5.16408 11.5 7.05172V9.16234C11.5 11.0822 11.5 12.0421 12.0964 12.6385C12.6928 13.2349 13.6527 13.2349 15.5725 13.2349H17.6831Z" stroke="#99E39E" stroke-width="1.5"/>
</svg>
