<svg width="24" height="25" viewBox="0 0 24 25" fill="none" xmlns="http://www.w3.org/2000/svg">
<path d="M10.125 15.235V9.23499M12 9.23499V7.73499M12 16.735V15.235M10.125 12.235H13.875M13.875 12.235C14.4963 12.235 15 12.7387 15 13.36V14.11C15 14.7313 14.4963 15.235 13.875 15.235H9M13.875 12.235C14.4963 12.235 15 11.7313 15 11.11V10.36C15 9.73867 14.4963 9.23499 13.875 9.23499H9" stroke="#99E39E" stroke-width="1.5" stroke-linecap="round" stroke-linejoin="round"/>
<path d="M21 11.9184V9.01534C21 7.37534 21 6.55534 20.5959 6.02034C20.1918 5.48535 19.2781 5.22562 17.4507 4.70615C16.2022 4.35125 15.1016 3.92368 14.2223 3.53334C13.0234 3.00115 12.424 2.73505 12 2.73505C11.576 2.73505 10.9766 3.00115 9.77771 3.53334C8.89839 3.92368 7.79784 4.35125 6.54933 4.70615C4.72193 5.22562 3.80822 5.48535 3.40411 6.02034C3 6.55534 3 7.37534 3 9.01534V11.9184C3 17.5436 8.06277 20.9186 10.594 22.2545C11.2011 22.5749 11.5046 22.7351 12 22.7351C12.4954 22.7351 12.7989 22.5749 13.406 22.2545C15.9372 20.9186 21 17.5436 21 11.9184Z" stroke="#99E39E" stroke-width="1.5" stroke-linecap="round"/>
</svg>
