<svg width="24" height="25" viewBox="0 0 24 25" fill="none" xmlns="http://www.w3.org/2000/svg">
<path d="M5 9.73486C5 6.43503 5 4.78511 6.02513 3.75999C7.05025 2.73486 8.70017 2.73486 12 2.73486C15.2998 2.73486 16.9497 2.73486 17.9749 3.75999C19 4.78511 19 6.43503 19 9.73486V15.7349C19 19.0347 19 20.6846 17.9749 21.7098C16.9497 22.7349 15.2998 22.7349 12 22.7349C8.70017 22.7349 7.05025 22.7349 6.02513 21.7098C5 20.6846 5 19.0347 5 15.7349V9.73486Z" stroke="#99E39E" stroke-width="1.5" stroke-linecap="round"/>
<path d="M11 19.7349H13" stroke="#99E39E" stroke-width="1.5" stroke-linecap="round" stroke-linejoin="round"/>
<path d="M9 2.73486L9.089 3.26888C9.28188 4.42615 9.37832 5.00479 9.77519 5.3569C10.1892 5.7242 10.7761 5.73486 12 5.73486C13.2239 5.73486 13.8108 5.7242 14.2248 5.3569C14.6217 5.00479 14.7181 4.42615 14.911 3.26888L15 2.73486" stroke="#99E39E" stroke-width="1.5" stroke-linejoin="round"/>
</svg>
