<svg width="404" height="233" viewBox="0 0 404 233" fill="none" xmlns="http://www.w3.org/2000/svg">
<path d="M84.7484 7.05645C102.874 -23.6157 127.668 -50.2327 157.421 -70.9588C187.174 -91.685 221.177 -106.027 257.087 -112.995C292.996 -119.964 329.956 -119.393 365.418 -111.323C400.88 -103.252 433.999 -87.8734 462.492 -66.2479L390.851 20.1669C375.254 8.32909 357.124 -0.0890541 337.713 -4.50691C318.301 -8.92477 298.069 -9.23719 278.412 -5.42263C258.755 -1.60808 240.142 6.24267 223.855 17.5881C207.568 28.9336 193.996 43.5037 184.074 60.2937L84.7484 7.05645Z" fill="white"/>
<path d="M505.638 222.744C486.359 252.771 460.573 278.508 430.06 298.18C399.548 317.853 365.033 330.992 328.898 336.693C292.762 342.394 255.866 340.52 220.753 331.201C185.641 321.881 153.148 305.338 125.516 282.713L200.384 198.843C215.51 211.228 233.297 220.284 252.517 225.385C271.738 230.487 291.935 231.512 311.716 228.392C331.496 225.271 350.389 218.079 367.092 207.31C383.795 196.541 397.91 182.453 408.463 166.016L505.638 222.744Z" fill="white"/>
<path d="M240.731 124.13L119.515 252.348L87.5914 36.486L240.731 124.13Z" fill="white"/>
<path d="M172.138 134.274L50.9227 262.492L18.9986 46.6303L172.138 134.274Z" fill="white"/>
</svg>
