<svg width="32" height="33" viewBox="0 0 32 33" fill="none" xmlns="http://www.w3.org/2000/svg">
<path d="M8.77667 10.3853C12.7861 11.0922 15.1757 12.5708 16 13.4196C16.8243 12.5708 19.2139 11.0922 23.2233 10.3853C25.2545 10.0272 26.2701 9.84819 27.1351 10.5344C28 11.2207 28 12.3351 28 14.5639V22.5736C28 24.6116 28 25.6306 27.4449 26.2667C26.8897 26.9028 25.6676 27.1183 23.2233 27.5492C21.0444 27.9334 19.3439 28.5454 18.1129 29.1604C16.902 29.7656 16.2964 30.0682 16 30.0682C15.7036 30.0682 15.098 29.7656 13.8871 29.1604C12.6561 28.5454 10.9556 27.9334 8.77667 27.5492C6.33239 27.1183 5.11024 26.9028 4.55512 26.2667C4 25.6306 4 24.6116 4 22.5736V14.5639C4 12.3351 4 11.2207 4.86493 10.5344C5.72988 9.84819 6.74548 10.0272 8.77667 10.3853Z" stroke="#99E39E" stroke-width="2" stroke-linecap="round" stroke-linejoin="round"/>
<path d="M16 12.7349V30.0682" stroke="#99E39E" stroke-width="2" stroke-linejoin="round"/>
<path d="M11.3333 4.81298C12.6817 3.91884 14.2785 3.40155 15.9901 3.40155C17.7099 3.40155 19.3139 3.92391 20.6666 4.8261M18.1629 8.06822C17.5227 7.68188 16.7809 7.461 15.9901 7.461C15.2077 7.461 14.4733 7.6772 13.8378 8.05592" stroke="#99E39E" stroke-width="2" stroke-linecap="round"/>
</svg>
