<svg width="32" height="33" viewBox="0 0 32 33" fill="none" xmlns="http://www.w3.org/2000/svg">
<path d="M22.6666 15.1409C22.6666 14.6799 22.6666 14.4495 22.736 14.2442C22.9376 13.6475 23.469 13.4159 24.0014 13.1734C24.6 12.9008 24.8992 12.7645 25.1957 12.7405C25.5324 12.7132 25.8696 12.7858 26.1573 12.9473C26.5388 13.1613 26.8048 13.5681 27.0772 13.8989C28.335 15.4266 28.9638 16.1906 29.194 17.033C29.3797 17.7127 29.3797 18.4237 29.194 19.1034C28.8584 20.3321 27.798 21.3621 27.013 22.3154C26.6116 22.803 26.4108 23.0469 26.1573 23.1891C25.8696 23.3506 25.5324 23.4231 25.1957 23.3959C24.8992 23.3719 24.6 23.2357 24.0014 22.963C23.469 22.7205 22.9376 22.489 22.736 21.8922C22.6666 21.6869 22.6666 21.4565 22.6666 20.9955V15.1409Z" stroke="#99E39E" stroke-width="2"/>
<path d="M9.33329 15.141C9.33329 14.5607 9.317 14.0391 8.84784 13.6311C8.6772 13.4827 8.45096 13.3797 7.99851 13.1736C7.39997 12.901 7.10071 12.7647 6.80417 12.7407C5.91451 12.6687 5.43585 13.2759 4.9228 13.8991C3.66496 15.4269 3.03604 16.1907 2.80591 17.0331C2.6202 17.713 2.6202 18.4239 2.80591 19.1037C3.14156 20.3323 4.20199 21.3622 4.98691 22.3157C5.48168 22.9166 5.95432 23.4649 6.80417 23.3962C7.10071 23.3722 7.39997 23.2358 7.99851 22.9633C8.45096 22.7571 8.6772 22.6541 8.84784 22.5057C9.317 22.0977 9.33329 21.5762 9.33329 20.9958V15.141Z" stroke="#99E39E" stroke-width="2"/>
<path d="M6.66663 12.7349C6.66663 8.31658 10.8453 4.73486 16 4.73486C21.1546 4.73486 25.3333 8.31658 25.3333 12.7349" stroke="#99E39E" stroke-width="2" stroke-linecap="square" stroke-linejoin="round"/>
<path d="M25.3334 23.4016V24.4682C25.3334 26.8246 22.9455 28.7349 20 28.7349H17.3334" stroke="#99E39E" stroke-width="2" stroke-linecap="round" stroke-linejoin="round"/>
</svg>
