<svg width="188" height="32" viewBox="0 0 188 32" fill="none" xmlns="http://www.w3.org/2000/svg">
<g clip-path="url(#clip0_329_1303)">
<path d="M30.5606 25.2977L30.563 25.3004L25.5132 29.7312C24.4778 30.6622 23.139 31.1896 21.7434 31.2155L21.7317 31.2158H4.4264C3.78579 31.2427 3.14743 31.1228 2.56072 30.8653C1.96364 30.6033 1.43616 30.2059 1.02076 29.7046C0.605333 29.2034 0.313666 28.6127 0.168709 27.9796C0.0264481 27.3574 0.0295352 26.7103 0.17841 26.0892L1.51076 19.3052C1.62929 18.7147 1.94253 18.1801 2.40102 17.7867L2.46635 17.7307C2.32452 17.5166 2.22078 17.2794 2.15995 17.0295C2.07925 16.698 2.07644 16.3531 2.15076 16.0214L3.48576 9.22475L3.48782 9.21508C3.74763 7.99549 4.40204 6.89439 5.3509 6.08036L9.97435 2.02365C10.1883 1.77929 10.4231 1.55167 10.6772 1.34358C11.6892 0.514565 12.9486 0.0424867 14.2587 0.000696229L14.2805 0L31.6067 0.0495969C32.2467 0.0229947 32.8842 0.142974 33.4703 0.400169C34.0675 0.662233 34.5949 1.05962 35.0103 1.5608C35.4257 2.06191 35.7174 2.65271 35.8623 3.28604C36.0048 3.90849 36.0014 4.55509 35.8528 5.17579L32.5433 22.0699L32.5386 22.0904C32.2479 23.3458 31.5531 24.4718 30.5606 25.2977Z" fill="#0B280D"/>
<path d="M31.3363 1.61067C31.7915 1.5877 32.2457 1.6716 32.6627 1.85551C33.0798 2.03942 33.448 2.31826 33.738 2.66987C34.028 3.02147 34.2317 3.436 34.3329 3.88039C34.4341 4.32477 34.4299 4.78671 34.3207 5.22919L31.0254 22.134C30.7939 23.1384 30.2367 24.0381 29.4404 24.6926C28.6442 25.3471 27.6536 25.7198 26.6234 25.7525H9.38219C8.92693 25.7752 8.47261 25.6913 8.05544 25.5074C7.63827 25.3235 7.26981 25.0448 6.97939 24.6934C6.68896 24.3419 6.48457 23.9276 6.38252 23.4833C6.28048 23.039 6.2836 22.5769 6.39159 22.134L7.72215 15.295C7.80017 14.9612 7.98636 14.6626 8.25173 14.4456C8.5171 14.2285 8.84677 14.1053 9.18949 14.0951C12.3356 14.207 15.3573 14.4432 18.1738 15.4566L18.7956 19.3673C18.8108 19.4618 18.8606 19.5472 18.9353 19.6069C19.01 19.6667 19.1042 19.6965 19.1997 19.6907C19.3094 19.6887 19.4167 19.6579 19.5106 19.6011C19.6045 19.5443 19.6817 19.4636 19.7344 19.3673L21.8608 15.4566L26.1136 14.1137C26.2165 14.0808 26.309 14.0217 26.3821 13.9421C26.4551 13.8625 26.5062 13.7652 26.5301 13.6599C26.5545 13.5667 26.543 13.4679 26.4981 13.3827C26.4533 13.2976 26.3782 13.2324 26.2876 13.1998L22.5571 11.863L21.9354 7.95247C21.9203 7.85748 21.8706 7.77139 21.7962 7.71067C21.7216 7.64987 21.6273 7.61865 21.5313 7.62294C21.4209 7.62544 21.3132 7.65729 21.2192 7.7152C21.1253 7.77311 21.0484 7.85498 20.9965 7.95247L18.8702 11.863C15.7867 12.7475 12.5962 13.2037 9.38843 13.2185C9.23444 13.2316 9.07959 13.2079 8.93653 13.1494C8.79347 13.091 8.66632 12.9996 8.56556 12.8824C8.4648 12.7653 8.39331 12.6258 8.35694 12.4756C8.32057 12.3255 8.32033 12.1687 8.35631 12.0184L9.68689 5.17941C9.91706 4.17549 10.4732 3.27604 11.2684 2.62144C12.0636 1.96684 13.0532 1.59404 14.0827 1.56104L31.3363 1.61067Z" fill="#99E39E"/>
<path d="M137.395 24.1975C134.198 24.1975 131.93 22.8938 131.215 20.4342L135.395 18.5403C135.692 19.5487 136.558 20.0161 138.132 20.0161C139.355 20.0161 140.345 19.6471 140.483 18.86C140.657 17.8762 139.684 17.7286 138.2 17.5073C135.742 17.1383 132.215 16.179 132.913 12.2191C133.451 9.16917 136.635 6.83252 140.382 6.83252C143.329 6.83252 145.596 8.13611 146.312 10.5957L142.132 12.4897C141.8 11.678 141.018 11.0139 139.444 11.0139C138.345 11.0139 137.685 11.3582 137.564 12.0469C137.4 12.9815 138.446 13.2767 140.051 13.5226C142.484 13.8917 145.816 14.8263 145.113 18.8108C144.575 21.8608 141.141 24.1975 137.395 24.1975Z" fill="white"/>
<path d="M162.795 23.8039H167.49L171.183 12.0715L172.117 21.787C172.244 23.189 173.371 23.8777 174.745 23.8777C176.144 23.8777 177.444 23.1644 178.129 21.6886L182.492 12.0961L181.777 23.8039H186.447L186.895 9.93163C186.951 7.91477 185.793 6.83252 183.82 6.83252C182.022 6.83252 180.355 7.64417 179.555 9.48893L175.743 18.2206L174.998 9.4151C174.849 7.57042 173.505 6.83252 171.757 6.83252C169.734 6.83252 168.148 7.89018 167.477 9.85787L162.795 23.8039Z" fill="white"/>
<path d="M147.131 16.302C146.264 21.2212 148.13 24.099 153.424 24.099C158.694 24.099 161.624 21.2212 162.491 16.302L164.096 7.20142H159.476L157.893 16.179C157.442 18.737 156.256 19.7947 154.183 19.7947C152.135 19.7947 151.323 18.737 151.774 16.179L153.357 7.20142H148.736L147.131 16.302Z" fill="white"/>
<path fill-rule="evenodd" clip-rule="evenodd" d="M115.693 23.8038L120.319 23.7792L121.03 19.7455H123.128C128.023 19.7455 131.212 17.3842 131.914 13.3997C132.595 9.53804 130.085 7.20142 125.09 7.20142H118.621L115.693 23.8038ZM122.504 11.3827H124.477C126.475 11.3827 127.398 12.096 127.169 13.3997C126.921 14.8017 125.813 15.5641 123.74 15.5641H121.767L122.504 11.3827Z" fill="white"/>
<path d="M111.01 7.20142H115.631L112.703 23.8038H108.083L111.01 7.20142Z" fill="white"/>
<path fill-rule="evenodd" clip-rule="evenodd" d="M90.0021 15.5148C89.1303 20.4586 92.2717 24.1726 97.3668 24.1726C102.462 24.1726 106.913 20.4586 107.785 15.5148C108.657 10.571 105.515 6.85693 100.42 6.85693C95.325 6.85693 90.8739 10.571 90.0021 15.5148ZM103.039 15.5148C102.605 17.9744 100.473 19.8683 98.1254 19.8683C95.7777 19.8683 94.3135 17.9744 94.7475 15.5148C95.1814 13.0552 97.3129 11.1613 99.6606 11.1613C102.008 11.1613 103.473 13.0552 103.039 15.5148Z" fill="white"/>
<path d="M80.3411 24.1726C75.2962 24.1726 72.1222 20.3603 72.9766 15.5148C73.831 10.6693 78.2994 6.85693 83.3944 6.85693C86.3915 6.85693 89.0701 8.38187 89.8038 11.1613L85.668 13.2274C85.1895 11.9729 84.388 11.1367 82.4399 11.1367C80.0672 11.1367 78.169 12.9814 77.7089 15.5886C77.2275 18.3187 78.5179 20.0651 81.0654 20.0651C82.4141 20.0651 83.2851 19.9421 84.1218 19.3026L84.5089 17.015L80.1858 15.1047H89.3144L89.1856 15.8837H89.1958L89.0529 16.692L89.0444 16.7453L89.0436 16.7457L88.3279 20.8029C86.6826 22.7706 83.7378 24.1726 80.3411 24.1726Z" fill="white"/>
<path fill-rule="evenodd" clip-rule="evenodd" d="M54.683 15.5148C53.8113 20.4586 56.9526 24.1726 62.0477 24.1726C67.1427 24.1726 71.5939 20.4586 72.4656 15.5148C73.3373 10.571 70.196 6.85693 65.1009 6.85693C60.0059 6.85693 55.5547 10.571 54.683 15.5148ZM67.7203 15.5148C67.2865 17.9744 65.1544 19.8683 62.8067 19.8683C60.459 19.8683 58.9946 17.9744 59.4283 15.5148C59.8621 13.0552 61.9943 11.1613 64.342 11.1613C66.6897 11.1613 68.154 13.0552 67.7203 15.5148Z" fill="white"/>
<path d="M48.7001 7.20142L46.5099 19.6225H53.9527L53.2154 23.8038H45.1483C42.3011 23.8038 41.4124 22.328 41.8244 19.9914L44.0796 7.20142H48.7001Z" fill="white"/>
</g>
<defs>
<clipPath id="clip0_329_1303">
<rect width="187.317" height="32" fill="white" transform="translate(0.0643311)"/>
</clipPath>
</defs>
</svg>
