<svg width="118" height="32" viewBox="0 0 118 32" fill="none" xmlns="http://www.w3.org/2000/svg">
<path d="M40.0249 21.6362H42.5842V9.59253H40.0249V21.6362Z" fill="white"/>
<path d="M47.8342 21.9041C50.5106 21.9041 52.2669 20.1811 52.2669 17.1368C52.2669 14.1928 50.5608 12.3528 47.8342 12.3528C45.1578 12.3528 43.4182 14.0757 43.4182 17.1368C43.4182 20.0975 45.1077 21.9041 47.8342 21.9041ZM47.8342 19.8299C46.68 19.8299 46.0444 18.8764 46.0444 17.1368C46.0444 15.3804 46.6633 14.427 47.8342 14.427C49.0051 14.427 49.6408 15.3971 49.6408 17.1368C49.6408 18.8931 49.0218 19.8299 47.8342 19.8299Z" fill="white"/>
<path d="M56.4306 21.6531C57.4008 21.6531 58.2037 21.2517 58.7724 20.4655V21.971C58.7724 23.2255 58.1535 23.6437 57.2335 23.6437C56.347 23.6437 55.6612 23.2088 55.5608 22.4059H53.0015C53.3193 24.5971 54.9753 25.6008 57.267 25.6008C59.6255 25.6008 61.3317 24.3462 61.3317 21.9375V12.6371H58.7724V13.4735C58.2204 12.7375 57.4343 12.3528 56.4306 12.3528C54.1892 12.3528 52.7339 14.0255 52.7339 17.0197C52.7339 19.8801 54.1557 21.6531 56.4306 21.6531ZM57.0495 19.579C55.9455 19.579 55.3601 18.659 55.3601 17.0197C55.3601 15.3302 55.9455 14.427 57.0495 14.427C58.1702 14.427 58.7724 15.347 58.7724 17.003C58.7724 18.6757 58.187 19.579 57.0495 19.579Z" fill="white"/>
<path d="M66.5962 21.9041C69.2725 21.9041 71.0289 20.1811 71.0289 17.1368C71.0289 14.1928 69.3227 12.3528 66.5962 12.3528C63.9198 12.3528 62.1802 14.0757 62.1802 17.1368C62.1802 20.0975 63.8696 21.9041 66.5962 21.9041ZM66.5962 19.8299C65.442 19.8299 64.8064 18.8764 64.8064 17.1368C64.8064 15.3804 65.4253 14.427 66.5962 14.427C67.7671 14.427 68.4027 15.3971 68.4027 17.1368C68.4027 18.8931 67.7838 19.8299 66.5962 19.8299Z" fill="white"/>
<path d="M71.8806 11.7336H74.4402V9.59253H71.8806V11.7336ZM71.8806 21.6362H74.4402V12.6369H71.8806V21.6362Z" fill="white"/>
<path d="M78.2175 25.3331V20.7331C78.7527 21.5026 79.5222 21.9041 80.4757 21.9041C82.7673 21.9041 84.256 20.1811 84.256 17.1201C84.256 14.1761 82.8007 12.3528 80.4757 12.3528C79.5389 12.3528 78.7695 12.7877 78.2175 13.5739V12.6371H75.6582V25.3331H78.2175ZM79.9404 14.427C81.0277 14.427 81.6298 15.3804 81.6298 17.1201C81.6298 18.8764 81.0444 19.8299 79.9404 19.8299C78.8197 19.8299 78.2175 18.8597 78.2175 17.1201C78.2175 15.3804 78.8029 14.427 79.9404 14.427Z" fill="white"/>
<path d="M87.3296 15.1295C87.3296 14.6444 87.7645 14.3099 88.4336 14.3099C89.3368 14.3099 89.8721 14.6946 90.0226 15.6146H92.5652C92.3143 13.3397 90.675 12.3528 88.5172 12.3528C86.1085 12.3528 84.8874 13.7579 84.8874 15.2633C84.8874 18.8764 90.3405 17.3208 90.3405 19.0604C90.3405 19.6124 89.8888 19.9637 88.9856 19.9637C88.0321 19.9637 87.3463 19.5121 87.2292 18.6757H84.6699C85.0045 20.9004 86.6437 21.9041 88.9187 21.9041C91.2605 21.9041 92.8997 20.683 92.8997 18.9099C92.8997 15.347 87.3296 16.9026 87.3296 15.1295Z" fill="white"/>
<path d="M99.2053 17.8057C99.2053 18.9599 98.5697 19.8297 97.5828 19.8297C96.6795 19.8297 96.2446 19.261 96.2446 18.1068V12.637H93.6853V18.6253C93.6853 20.8668 94.9399 21.9039 96.646 21.9039C97.7333 21.9039 98.6199 21.4355 99.2053 20.4319V21.6362H101.765V12.637H99.2053V17.8057Z" fill="white"/>
<path d="M103.001 21.6364H105.56V16.4677C105.56 15.3135 106.146 14.427 107.032 14.427C107.852 14.427 108.253 15.0124 108.253 16.1499V21.6364H110.796V16.4677C110.796 15.3135 111.398 14.427 112.285 14.427C113.104 14.427 113.489 15.0124 113.489 16.1499V21.6364H116.048V15.6313C116.048 13.4066 114.81 12.3528 113.138 12.3528C112.017 12.3528 111.064 12.8211 110.445 13.8415C109.993 12.8379 109.09 12.3528 108.019 12.3528C106.982 12.3528 106.129 12.8044 105.56 13.7746V12.6371H103.001V21.6364Z" fill="white"/>
<path d="M30.319 25.311C33.0914 22.8353 34.7915 19.4944 34.7915 15.8182C34.7915 8.18662 27.4652 2 18.4278 2C9.39046 2 2.06421 8.18662 2.06421 15.8182C2.06421 23.4497 9.39046 29.6364 18.4278 29.6364C20.9917 29.6364 23.4179 29.1385 25.5781 28.2508C28.1157 29.8172 31.2247 30.9431 34.6583 30.7056C32.8444 30.2445 31.2841 28.3767 30.319 25.311Z" fill="#99E39E" fill-opacity="0.4"/>
<path d="M30.4277 15.818C30.4277 21.4413 25.0552 25.9999 18.4277 25.9999C11.8003 25.9999 6.42773 21.4413 6.42773 15.818C6.42773 10.1948 11.8003 5.63623 18.4277 5.63623C25.0552 5.63623 30.4277 10.1948 30.4277 15.818Z" fill="#99E39E" fill-opacity="0.6"/>
<path d="M26.0642 15.8182C26.0642 19.4331 22.6453 22.3636 18.4279 22.3636C14.2104 22.3636 10.7915 19.4331 10.7915 15.8182C10.7915 12.2032 14.2104 9.27271 18.4279 9.27271C22.6453 9.27271 26.0642 12.2032 26.0642 15.8182Z" fill="#99E39E"/>
</svg>
