<svg width="131" height="32" viewBox="0 0 131 32" fill="none" xmlns="http://www.w3.org/2000/svg">
<g clip-path="url(#clip0_329_1333)">
<path d="M38.9408 22.2438H48.2692V19.434H42.2563V8.85059H38.9408V22.2438Z" fill="white"/>
<path d="M53.796 20.3706C52.4661 20.3706 51.773 19.2092 51.773 17.4672C51.773 15.7251 52.4661 14.545 53.796 14.545C55.126 14.545 55.8378 15.7251 55.8378 17.4672C55.8378 19.2092 55.126 20.3706 53.796 20.3706ZM53.8147 22.5435C56.9055 22.5435 58.9285 20.3518 58.9285 17.4672C58.9285 14.5825 56.9055 12.3909 53.8147 12.3909C50.7427 12.3909 48.6823 14.5825 48.6823 17.4672C48.6823 20.3518 50.7427 22.5435 53.8147 22.5435Z" fill="white"/>
<path d="M64.2783 25.5592C65.7019 25.5592 66.9569 25.2408 67.7998 24.4915C68.5678 23.7984 69.0736 22.7494 69.0736 21.3071V12.653H66.1514V13.6833H66.114C65.552 12.8778 64.6904 12.3721 63.4166 12.3721C61.0377 12.3721 59.3893 14.3576 59.3893 17.1674C59.3893 20.1083 61.3936 21.7192 63.5477 21.7192C64.7091 21.7192 65.4396 21.2509 66.0016 20.614H66.0765V21.5693C66.0765 22.7307 65.5333 23.405 64.2408 23.405C63.2293 23.405 62.7235 22.9742 62.5549 22.4685H59.5953C59.895 24.4728 61.6371 25.5592 64.2783 25.5592ZM64.2595 19.4527C63.1169 19.4527 62.3676 18.5161 62.3676 17.0737C62.3676 15.6127 63.1169 14.6761 64.2595 14.6761C65.5333 14.6761 66.2076 15.7625 66.2076 17.055C66.2076 18.4037 65.5895 19.4527 64.2595 19.4527Z" fill="white"/>
<path d="M75.082 20.3706C73.7521 20.3706 73.059 19.2092 73.059 17.4672C73.059 15.7251 73.7521 14.545 75.082 14.545C76.412 14.545 77.1238 15.7251 77.1238 17.4672C77.1238 19.2092 76.412 20.3706 75.082 20.3706ZM75.1008 22.5435C78.1915 22.5435 80.2147 20.3518 80.2147 17.4672C80.2147 14.5825 78.1915 12.3909 75.1008 12.3909C72.0288 12.3909 69.9683 14.5825 69.9683 17.4672C69.9683 20.3518 72.0288 22.5435 75.1008 22.5435Z" fill="white"/>
<path d="M81.1062 22.2438H84.1595V12.6531H81.1062V22.2438ZM81.1062 11.3232H84.1595V8.85059H81.1062V11.3232Z" fill="white"/>
<path d="M85.4839 25.4093H88.5372V21.2509H88.5746C89.174 22.0564 90.0544 22.5434 91.2907 22.5434C93.8008 22.5434 95.4679 20.5578 95.4679 17.4484C95.4679 14.5637 93.9132 12.3721 91.3656 12.3721C90.0544 12.3721 89.1178 12.9528 88.4622 13.8144H88.406V12.653H85.4839V25.4093ZM90.504 20.1832C89.1928 20.1832 88.4435 19.1155 88.4435 17.5608C88.4435 16.006 89.1178 14.8259 90.4478 14.8259C91.759 14.8259 92.3772 15.9124 92.3772 17.5608C92.3772 19.1904 91.6653 20.1832 90.504 20.1832Z" fill="white"/>
<path d="M100.44 22.5434C102.95 22.5434 104.804 21.4569 104.804 19.359C104.804 16.9051 102.819 16.4743 101.133 16.1933C99.9151 15.9686 98.8287 15.8749 98.8287 15.2006C98.8287 14.6011 99.4093 14.3202 100.159 14.3202C101.002 14.3202 101.582 14.5824 101.695 15.4441H104.504C104.355 13.5522 102.893 12.3721 100.177 12.3721C97.9108 12.3721 96.0376 13.421 96.0376 15.4441C96.0376 17.6919 97.8172 18.1414 99.4843 18.4224C100.758 18.6472 101.919 18.7409 101.919 19.6025C101.919 20.2207 101.339 20.5578 100.421 20.5578C99.4093 20.5578 98.7725 20.0895 98.6601 19.1342H95.7754C95.869 21.2509 97.6298 22.5434 100.44 22.5434Z" fill="white"/>
<path d="M108.951 22.5247C110.281 22.5247 111.124 22.0002 111.817 21.0636H111.873V22.2437H114.795V12.6531H111.742V18.0103C111.742 19.153 111.105 19.9397 110.056 19.9397C109.082 19.9397 108.614 19.359 108.614 18.3101V12.6531H105.579V18.9469C105.579 21.0823 106.74 22.5247 108.951 22.5247Z" fill="white"/>
<path d="M116.124 22.2437H119.177V16.8677C119.177 15.725 119.739 14.9196 120.694 14.9196C121.612 14.9196 122.043 15.519 122.043 16.5492V22.2437H125.096V16.8677C125.096 15.725 125.639 14.9196 126.613 14.9196C127.531 14.9196 127.962 15.519 127.962 16.5492V22.2437H131.015V16.006C131.015 13.8519 129.929 12.3721 127.756 12.3721C126.52 12.3721 125.489 12.8966 124.74 14.0579H124.703C124.216 13.0277 123.26 12.3721 122.005 12.3721C120.619 12.3721 119.701 13.0277 119.102 14.0205H119.046V12.653H116.124V22.2437Z" fill="white"/>
<path fill-rule="evenodd" clip-rule="evenodd" d="M7.73963 2.80809C6.62302 3.58886 5.6133 4.51198 4.73678 5.55114C8.31867 5.2186 12.8693 5.7616 18.1526 8.40326C23.7944 11.2241 28.3375 11.3195 31.4993 10.7096C31.2124 9.841 30.8511 9.00619 30.4234 8.21259C26.804 8.59432 22.164 8.08904 16.7565 5.38535C13.3226 3.66843 10.2958 2.96117 7.73963 2.80809ZM28.3091 5.20324C25.4509 2.00975 21.2972 0 16.6741 0C15.3164 0 13.9991 0.173352 12.7433 0.499106C14.4441 0.963188 16.251 1.64213 18.1526 2.59299C22.1117 4.57251 25.5298 5.20988 28.3091 5.20324ZM32.1752 13.7585C28.3555 14.5128 23.0809 14.3578 16.7565 11.1956C10.8438 8.23928 6.13784 8.27651 2.96396 8.98184C2.80014 9.01821 2.64017 9.05645 2.48406 9.09625C2.06852 9.99998 1.73683 10.9503 1.49883 11.9372C1.75302 11.8692 2.01569 11.8047 2.2867 11.7444C6.13717 10.8888 11.5775 10.926 18.1526 14.2135C24.0654 17.1699 28.7713 17.1326 31.9452 16.4273C32.054 16.4032 32.1611 16.3782 32.2665 16.3524C32.278 16.1064 32.2838 15.8587 32.2838 15.6097C32.2838 14.9834 32.247 14.3656 32.1752 13.7585ZM31.7568 19.6467C27.9742 20.308 22.8532 20.0541 16.7565 17.0059C10.8438 14.0495 6.13784 14.0868 2.96396 14.7921C2.25945 14.9486 1.62569 15.1393 1.06662 15.3405C1.06509 15.4301 1.06433 15.5198 1.06433 15.6097C1.06433 24.2308 8.05305 31.2195 16.6741 31.2195C23.8991 31.2195 29.9777 26.3109 31.7568 19.6467Z" fill="#7F57F1"/>
</g>
<defs>
<clipPath id="clip0_329_1333">
<rect width="130.341" height="32" fill="white" transform="translate(0.503296)"/>
</clipPath>
</defs>
</svg>
