<svg width="125" height="32" viewBox="0 0 125 32" fill="none" xmlns="http://www.w3.org/2000/svg">
<path d="M37.4631 9.64123H40.4631V21.7712H37.4631V9.64123ZM41.6531 17.1912C41.6531 14.1912 43.4931 12.4012 46.3331 12.4012C49.1731 12.4012 51.0131 14.1912 51.0131 17.1912C51.0131 20.1912 49.2131 21.9912 46.3331 21.9912C43.4531 21.9912 41.6531 20.2412 41.6531 17.1912ZM48.0031 17.1912C48.0031 15.5412 47.3531 14.5712 46.3331 14.5712C45.3131 14.5712 44.6731 15.5712 44.6731 17.1912C44.6731 18.8112 45.3031 19.7912 46.3331 19.7912C47.3631 19.7912 48.0031 18.8712 48.0031 17.2012V17.1912ZM52.1431 22.3612H55.0231C55.1602 22.6657 55.3919 22.9178 55.6838 23.08C55.9757 23.2421 56.3122 23.3057 56.6431 23.2612C57.7831 23.2612 58.3831 22.6412 58.3831 21.7412V20.0612H58.3231C58.0841 20.5761 57.6962 21.0075 57.2096 21.2999C56.723 21.5922 56.1599 21.732 55.5931 21.7012C53.4031 21.7012 51.9531 20.0312 51.9531 17.1612C51.9531 14.2912 53.3331 12.4812 55.6331 12.4812C56.2177 12.4583 56.7953 12.6146 57.2886 12.9291C57.7819 13.2437 58.1673 13.7015 58.3931 14.2412V12.5712H61.3931V21.6712C61.3931 23.8612 59.4631 25.2212 56.6131 25.2212C53.9631 25.2212 52.3131 24.0312 52.1431 22.3712V22.3612ZM58.3931 17.1812C58.3931 15.7212 57.7231 14.8012 56.6631 14.8012C55.6031 14.8012 54.9531 15.7112 54.9531 17.1812C54.9531 18.6512 55.5931 19.4812 56.6631 19.4812C57.7331 19.4812 58.3931 18.6712 58.3931 17.1912V17.1812ZM62.5231 17.1812C62.5231 14.1812 64.3631 12.3912 67.2031 12.3912C70.0431 12.3912 71.8931 14.1812 71.8931 17.1812C71.8931 20.1812 70.0931 21.9812 67.2031 21.9812C64.3131 21.9812 62.5231 20.2412 62.5231 17.1912V17.1812ZM68.8731 17.1812C68.8731 15.5312 68.2231 14.5612 67.2031 14.5612C66.1831 14.5612 65.5931 15.5712 65.5931 17.2012C65.5931 18.8312 66.2231 19.8012 67.2431 19.8012C68.2631 19.8012 68.8731 18.8712 68.8731 17.2012V17.1812ZM73.0331 10.3912C73.0252 10.0883 73.1075 9.78993 73.2694 9.53384C73.4314 9.27774 73.6657 9.0755 73.9427 8.95274C74.2197 8.82998 74.5269 8.79223 74.8254 8.84428C75.1239 8.89634 75.4002 9.03585 75.6193 9.24512C75.8385 9.4544 75.9905 9.72403 76.0562 10.0198C76.1219 10.3156 76.0983 10.6242 75.9883 10.9066C75.8784 11.1889 75.6871 11.4323 75.4387 11.6058C75.1904 11.7793 74.896 11.8752 74.5931 11.8812C74.3923 11.895 74.1908 11.8671 74.0013 11.7993C73.8117 11.7315 73.6383 11.6253 73.4918 11.4872C73.3453 11.3492 73.2289 11.1823 73.15 10.9971C73.071 10.812 73.0312 10.6125 73.0331 10.4112V10.3912ZM73.0331 12.5912H76.0331V21.7712H73.0331V12.5912ZM86.9231 17.1812C86.9231 20.1812 85.5931 21.8912 83.3131 21.8912C82.7285 21.9287 82.1464 21.7858 81.6456 21.4818C81.1448 21.1777 80.7495 20.7272 80.5131 20.1912H80.4531V24.7112H77.4531V12.5712H80.4531V14.2112H80.5131C80.7385 13.6663 81.1263 13.2041 81.6237 12.8874C82.1211 12.5707 82.704 12.4149 83.2931 12.4412C85.5931 12.4812 86.9631 14.2012 86.9631 17.2012L86.9231 17.1812ZM83.9231 17.1812C83.9231 15.7212 83.2531 14.7912 82.2031 14.7912C81.1531 14.7912 80.4831 15.7312 80.4731 17.1812C80.4631 18.6312 81.1531 19.5612 82.2031 19.5612C83.2531 19.5612 83.9231 18.6512 83.9231 17.2012V17.1812ZM92.0731 12.3812C94.5631 12.3812 96.0731 13.5612 96.1431 15.4512H93.4131C93.4131 14.8012 92.8731 14.3912 92.0431 14.3912C91.2131 14.3912 90.8431 14.7112 90.8431 15.1812C90.8431 15.6512 91.1731 15.8012 91.8431 15.9412L93.7631 16.3312C95.5931 16.7212 96.3731 17.4612 96.3731 18.8512C96.3731 20.7512 94.6431 21.9712 92.0931 21.9712C89.5431 21.9712 87.8731 20.7512 87.7431 18.8812H90.6331C90.7231 19.5612 91.2631 19.9612 92.1431 19.9612C93.0231 19.9612 93.4231 19.6712 93.4231 19.1912C93.4231 18.7112 93.1431 18.6112 92.4231 18.4612L90.6931 18.0912C88.9031 17.7212 87.9631 16.7712 87.9631 15.3712C87.9831 13.5712 89.5931 12.4012 92.0731 12.4012V12.3812ZM106.383 21.7512H103.493V20.0412H103.433C103.274 20.6153 102.924 21.1178 102.44 21.4653C101.956 21.8127 101.368 21.9842 100.773 21.9512C100.317 21.9771 99.8613 21.9049 99.4358 21.7394C99.0103 21.5739 98.6253 21.3191 98.3068 20.992C97.9883 20.665 97.7436 20.2733 97.5895 19.8436C97.4353 19.4139 97.3752 18.9561 97.4131 18.5012V12.5712H100.413V17.8112C100.413 18.9012 100.973 19.4812 101.903 19.4812C102.121 19.4816 102.337 19.4355 102.536 19.3458C102.734 19.2561 102.912 19.1249 103.056 18.9611C103.199 18.7972 103.307 18.6045 103.37 18.3959C103.433 18.1872 103.452 17.9674 103.423 17.7512V12.5712H106.423L106.383 21.7512ZM107.833 12.5712H110.733V14.3412H110.793C110.952 13.7747 111.295 13.2769 111.767 12.9259C112.239 12.5749 112.815 12.3903 113.403 12.4012C114.002 12.3533 114.596 12.5324 115.069 12.903C115.541 13.2736 115.857 13.8084 115.953 14.4012H116.013C116.194 13.8021 116.57 13.2805 117.081 12.9184C117.591 12.5563 118.208 12.3743 118.833 12.4012C119.241 12.3875 119.647 12.4598 120.025 12.6134C120.404 12.7669 120.745 12.9984 121.028 13.2926C121.311 13.5869 121.529 13.9374 121.668 14.3213C121.806 14.7052 121.863 15.1141 121.833 15.5212V21.7712H118.833V16.3212C118.833 15.3212 118.383 14.8612 117.543 14.8612C117.356 14.8596 117.17 14.8982 116.999 14.9744C116.828 15.0506 116.675 15.1626 116.551 15.3029C116.427 15.4432 116.334 15.6084 116.279 15.7875C116.224 15.9667 116.209 16.1555 116.233 16.3412V21.7712H113.383V16.2812C113.383 15.3612 112.933 14.8612 112.113 14.8612C111.924 14.8613 111.736 14.9015 111.564 14.9792C111.391 15.057 111.236 15.1705 111.111 15.3122C110.985 15.4539 110.891 15.6207 110.834 15.8016C110.778 15.9824 110.76 16.1731 110.783 16.3612V21.7712H107.783L107.833 12.5712Z" fill="white"/>
<path d="M29.0731 10.1912C28.5642 9.02754 27.8907 7.94311 27.0731 6.97118C25.8646 5.49152 24.3564 4.28457 22.6478 3.42978C20.9392 2.575 19.0689 2.09175 17.1601 2.01184C15.2513 1.93193 13.3472 2.25717 11.5731 2.96617C9.79908 3.67516 8.19528 4.75183 6.86731 6.12531C5.53933 7.49878 4.51728 9.13793 3.86843 10.9349C3.21958 12.7318 2.95863 14.6458 3.10277 16.5508C3.24692 18.4559 3.79287 20.3088 4.70471 21.9876C5.61655 23.6665 6.8736 25.1332 8.39312 26.2912C9.36812 27.0491 10.4455 27.6652 11.5931 28.1212C13.2021 28.7806 14.9242 29.1202 16.6631 29.1212C20.2525 29.1133 23.6923 27.6825 26.2286 25.1425C28.7648 22.6025 30.1905 19.1606 30.1931 15.5712C30.1957 13.7197 29.8144 11.8878 29.0731 10.1912ZM16.6531 4.76117C18.2147 4.76101 19.7574 5.10231 21.1731 5.76117C20.8279 5.91034 20.4649 6.01453 20.0931 6.07118C18.8697 6.24827 17.7364 6.81625 16.8623 7.69035C15.9882 8.56444 15.4202 9.69778 15.2431 10.9212C15.1654 11.6073 14.8533 12.2456 14.3596 12.7284C13.8659 13.2112 13.2208 13.5088 12.5331 13.5712C11.3097 13.7483 10.1764 14.3163 9.30229 15.1904C8.4282 16.0645 7.86021 17.1978 7.68312 18.4212C7.62316 19.0736 7.34481 19.6867 6.89312 20.1612C6.11377 18.5145 5.76367 16.6973 5.87539 14.8789C5.98711 13.0605 6.55702 11.2999 7.53209 9.76088C8.50715 8.22197 9.85569 6.95469 11.4522 6.07702C13.0487 5.19935 14.8413 4.73982 16.6631 4.74117L16.6531 4.76117ZM8.38312 22.5712C8.50312 22.4612 8.62312 22.3612 8.74312 22.2412C9.63277 21.3787 10.2038 20.2401 10.3631 19.0112C10.4277 18.3204 10.7361 17.6752 11.2331 17.1912C11.7114 16.6934 12.3551 16.3875 13.0431 16.3312C14.2665 16.1541 15.3998 15.5861 16.2739 14.712C17.148 13.8379 17.716 12.7046 17.8931 11.4812C17.9364 10.7587 18.2464 10.078 18.7631 9.57118C19.2532 9.08303 19.903 8.78828 20.5931 8.74117C21.717 8.58654 22.7652 8.08689 23.5931 7.31118C24.5358 8.09325 25.3344 9.03407 25.9531 10.0912C25.9151 10.1425 25.8715 10.1895 25.8231 10.2312C25.3458 10.7334 24.7029 11.046 24.0131 11.1112C22.7884 11.2852 21.6534 11.8522 20.7787 12.7268C19.9041 13.6015 19.3371 14.7365 19.1631 15.9612C19.0926 16.6496 18.7863 17.2925 18.2961 17.7809C17.8058 18.2694 17.1618 18.5733 16.4731 18.6412C15.2461 18.8169 14.1086 19.3838 13.2294 20.2575C12.3503 21.1313 11.7764 22.2653 11.5931 23.4912C11.5393 23.9799 11.3714 24.4492 11.1031 24.8612C10.0771 24.252 9.15821 23.4784 8.38312 22.5712ZM16.6531 26.4312C15.6384 26.4323 14.6285 26.2909 13.6531 26.0112C13.9868 25.3892 14.2037 24.7113 14.2931 24.0112C14.3632 23.3243 14.6681 22.6826 15.1563 22.1944C15.6445 21.7062 16.2862 21.4013 16.9731 21.3312C18.1983 21.1561 19.3339 20.589 20.21 19.7147C21.086 18.8405 21.6555 17.706 21.8331 16.4812C21.9032 15.7943 22.2081 15.1526 22.6963 14.6644C23.1845 14.1762 23.8262 13.8713 24.5131 13.8012C25.4351 13.6813 26.3139 13.338 27.0731 12.8012C27.4947 14.3991 27.5446 16.0723 27.2191 17.6925C26.8936 19.3127 26.2012 20.8369 25.1952 22.148C24.1892 23.459 22.8963 24.5223 21.4155 25.2561C19.9348 25.9899 18.3057 26.3748 16.6531 26.3812V26.4312Z" fill="white"/>
</svg>
