<svg width="132" height="32" viewBox="0 0 132 32" fill="none" xmlns="http://www.w3.org/2000/svg">
<g clip-path="url(#clip0_329_1316)">
<path d="M39.277 21.8766H48.6054V19.0668H42.5925V8.4834H39.277V21.8766Z" fill="white"/>
<path d="M54.1321 20.0034C52.8021 20.0034 52.109 18.842 52.109 17.1C52.109 15.3579 52.8021 14.1778 54.1321 14.1778C55.462 14.1778 56.1738 15.3579 56.1738 17.1C56.1738 18.842 55.462 20.0034 54.1321 20.0034ZM54.1508 22.1763C57.2415 22.1763 59.2646 19.9847 59.2646 17.1C59.2646 14.2153 57.2415 12.0237 54.1508 12.0237C51.0788 12.0237 49.0183 14.2153 49.0183 17.1C49.0183 19.9847 51.0788 22.1763 54.1508 22.1763Z" fill="white"/>
<path d="M64.6143 25.192C66.0379 25.192 67.293 24.8736 68.1359 24.1243C68.9039 23.4312 69.4096 22.3822 69.4096 20.9399V12.2859H66.4875V13.3161H66.45C65.8881 12.5106 65.0264 12.0049 63.7527 12.0049C61.3737 12.0049 59.7253 13.9904 59.7253 16.8002C59.7253 19.7411 61.7296 21.352 63.8838 21.352C65.0451 21.352 65.7757 20.8837 66.3376 20.2468H66.4126V21.2022C66.4126 22.3635 65.8693 23.0379 64.5769 23.0379C63.5653 23.0379 63.0596 22.607 62.891 22.1013H59.9314C60.2311 24.1056 61.9731 25.192 64.6143 25.192ZM64.5956 19.0855C63.453 19.0855 62.7037 18.1489 62.7037 16.7065C62.7037 15.2455 63.453 14.3089 64.5956 14.3089C65.8693 14.3089 66.5437 15.3953 66.5437 16.6878C66.5437 18.0365 65.9255 19.0855 64.5956 19.0855Z" fill="white"/>
<path d="M75.4182 20.0034C74.0882 20.0034 73.3952 18.842 73.3952 17.1C73.3952 15.3579 74.0882 14.1778 75.4182 14.1778C76.7482 14.1778 77.46 15.3579 77.46 17.1C77.46 18.842 76.7482 20.0034 75.4182 20.0034ZM75.4369 22.1763C78.5277 22.1763 80.5503 19.9847 80.5503 17.1C80.5503 14.2153 78.5277 12.0237 75.4369 12.0237C72.3649 12.0237 70.3044 14.2153 70.3044 17.1C70.3044 19.9847 72.3649 22.1763 75.4369 22.1763Z" fill="white"/>
<path d="M81.4424 21.8766H84.4956V12.2859H81.4424V21.8766ZM81.4424 10.956H84.4956V8.4834H81.4424V10.956Z" fill="white"/>
<path d="M85.8202 25.0422H88.8735V20.8837H88.9109C89.5103 21.6892 90.3907 22.1762 91.627 22.1762C94.1371 22.1762 95.8042 20.1906 95.8042 17.0812C95.8042 14.1965 94.2495 12.0049 91.7019 12.0049C90.3907 12.0049 89.4541 12.5856 88.7985 13.4472H88.7423V12.2859H85.8202V25.0422ZM90.8403 19.816C89.5291 19.816 88.7798 18.7483 88.7798 17.1936C88.7798 15.6388 89.4541 14.4587 90.7841 14.4587C92.0953 14.4587 92.7135 15.5452 92.7135 17.1936C92.7135 18.8232 92.0017 19.816 90.8403 19.816Z" fill="white"/>
<path d="M100.775 22.1762C103.285 22.1762 105.14 21.0898 105.14 18.9918C105.14 16.538 103.154 16.1071 101.468 15.8262C100.251 15.6014 99.1641 15.5077 99.1641 14.8334C99.1641 14.234 99.7448 13.953 100.494 13.953C101.337 13.953 101.918 14.2152 102.03 15.0769H104.84C104.69 13.185 103.229 12.0049 100.513 12.0049C98.2463 12.0049 96.3731 13.0539 96.3731 15.0769C96.3731 17.3247 98.1526 17.7742 99.8197 18.0552C101.093 18.28 102.255 18.3737 102.255 19.2353C102.255 19.8535 101.674 20.1906 100.756 20.1906C99.7448 20.1906 99.1079 19.7223 98.9955 18.767H96.1108C96.2045 20.8837 97.9653 22.1762 100.775 22.1762Z" fill="white"/>
<path d="M109.287 22.1575C110.617 22.1575 111.46 21.633 112.153 20.6964H112.209V21.8765H115.131V12.2859H112.078V17.6432C112.078 18.7858 111.441 19.5725 110.392 19.5725C109.418 19.5725 108.95 18.9918 108.95 17.9429V12.2859H105.915V18.5797C105.915 20.7152 107.077 22.1575 109.287 22.1575Z" fill="white"/>
<path d="M116.46 21.8765H119.513V16.5005C119.513 15.3579 120.075 14.5524 121.03 14.5524C121.948 14.5524 122.379 15.1518 122.379 16.1821V21.8765H125.432V16.5005C125.432 15.3579 125.975 14.5524 126.949 14.5524C127.867 14.5524 128.298 15.1518 128.298 16.1821V21.8765H131.351V15.6388C131.351 13.4847 130.265 12.0049 128.092 12.0049C126.856 12.0049 125.826 12.5294 125.076 13.6907H125.039C124.552 12.6605 123.596 12.0049 122.341 12.0049C120.955 12.0049 120.037 12.6605 119.438 13.6533H119.382V12.2859H116.46V21.8765Z" fill="white"/>
<path d="M20.6486 0.822524L17.579 0L14.9921 9.6543L12.6567 0.938333L9.58691 1.76086L12.1102 11.1778L5.82524 4.89286L3.57807 7.14004L10.4719 14.0339L1.88673 11.7335L1.06421 14.8032L10.4446 17.3167C10.3372 16.8534 10.2804 16.3708 10.2804 15.8749C10.2804 12.3645 13.126 9.51888 16.6364 9.51888C20.1467 9.51888 22.9923 12.3645 22.9923 15.8749C22.9923 16.3676 22.9362 16.8473 22.8302 17.3078L31.3552 19.592L32.1777 16.5224L22.76 13.9989L31.3457 11.6983L30.5232 8.62866L21.1059 11.152L27.3909 4.86706L25.1437 2.61989L18.3455 9.41812L20.6486 0.822524Z" fill="#F97316"/>
<path d="M22.8218 17.3433C22.5586 18.4559 22.003 19.4555 21.2406 20.2564L27.4166 26.4324L29.6638 24.1853L22.8218 17.3433Z" fill="#F97316"/>
<path d="M21.1781 20.3213C20.4065 21.1093 19.4315 21.6974 18.338 22.0005L20.5853 30.3876L23.655 29.5651L21.1781 20.3213Z" fill="#F97316"/>
<path d="M18.2234 22.0311C17.716 22.1615 17.1843 22.2308 16.6363 22.2308C16.0492 22.2308 15.4807 22.1512 14.941 22.0022L12.6917 30.397L15.7613 31.2194L18.2234 22.0311Z" fill="#F97316"/>
<path d="M14.8326 21.9711C13.7558 21.653 12.7981 21.0574 12.0423 20.2671L5.85107 26.4583L8.09825 28.7055L14.8326 21.9711Z" fill="#F97316"/>
<path d="M11.9905 20.2125C11.2477 19.4172 10.7065 18.4309 10.449 17.3354L1.89612 19.6272L2.71864 22.6969L11.9905 20.2125Z" fill="#F97316"/>
</g>
<defs>
<clipPath id="clip0_329_1316">
<rect width="131.122" height="32" fill="white" transform="translate(0.381348)"/>
</clipPath>
</defs>
</svg>
